M48
; DRILL file {KiCad 9.0.4} date 2025-10-07T22:59:05+0200
; FORMAT={-:-/ absolute / metric / decimal}
; #@! TF.CreationDate,2025-10-07T22:59:05+02:00
; #@! TF.GenerationSoftware,Kicad,Pcbnew,9.0.4
; #@! TF.FileFunction,Plated,1,4,PTH
FMAT,2
METRIC
; #@! TA.AperFunction,Plated,PTH,ViaDrill
T1C0.300
; #@! TA.AperFunction,Plated,PTH,ViaDrill
T2C0.750
; #@! TA.AperFunction,Plated,PTH,ComponentDrill
T3C0.800
; #@! TA.AperFunction,Plated,PTH,ViaDrill
T4C1.000
; #@! TA.AperFunction,Plated,PTH,ComponentDrill
T5C1.000
; #@! TA.AperFunction,Plated,PTH,ComponentDrill
T6C1.100
; #@! TA.AperFunction,Plated,PTH,ComponentDrill
T7C1.200
; #@! TA.AperFunction,Plated,PTH,ComponentDrill
T8C1.200
; #@! TA.AperFunction,Plated,PTH,ComponentDrill
T9C1.300
; #@! TA.AperFunction,Plated,PTH,ComponentDrill
T10C1.400
; #@! TA.AperFunction,Plated,PTH,ComponentDrill
T11C1.500
; #@! TA.AperFunction,Plated,PTH,ComponentDrill
T12C1.800
; #@! TA.AperFunction,Plated,PTH,ComponentDrill
T13C2.000
; #@! TA.AperFunction,Plated,PTH,ComponentDrill
T14C2.200
; #@! TA.AperFunction,Plated,PTH,ComponentDrill
T15C2.250
; #@! TA.AperFunction,Plated,PTH,ComponentDrill
T16C2.400
; #@! TA.AperFunction,Plated,PTH,ComponentDrill
T17C3.500
%
G90
G05
T1
X318.5Y-220.25
T2
X353.5Y-255.75
T3
X134.5Y-232.6
X134.5Y-242.9
X150.65Y-221.75
X160.85Y-221.75
X197.75Y-218.15
X197.75Y-228.35
X206.0Y-186.25
X219.0Y-186.25
X223.25Y-213.15
X223.25Y-223.35
X230.0Y-228.15
X230.0Y-238.35
X290.85Y-228.25
X301.15Y-228.25
X330.35Y-228.25
X340.65Y-228.25
X342.9Y-258.75
X353.1Y-258.75
X362.0Y-215.0
X362.0Y-228.0
X367.75Y-215.0
X367.75Y-228.0
X376.0Y-261.75
X389.0Y-261.75
X394.85Y-202.75
X405.15Y-202.75
X416.65Y-256.0
X426.85Y-256.0
X443.4Y-256.0
X453.6Y-256.0
X463.6Y-202.5
X464.9Y-247.0
X473.9Y-202.5
X475.1Y-247.0
X489.5Y-207.5
X489.5Y-220.5
X492.15Y-240.25
X501.75Y-199.5
X502.35Y-240.25
X503.75Y-199.5
T4
X466.0Y-252.5
X492.5Y-201.25
T5
X140.5Y-231.5
X140.5Y-245.0
X147.0Y-245.25
X154.73Y-214.25
X157.27Y-214.25
X172.5Y-245.25
X177.25Y-186.25
X180.4Y-179.75
X189.1Y-179.75
X191.25Y-221.75
X191.25Y-235.25
X191.75Y-195.5
X192.25Y-186.25
X195.0Y-254.75
X195.0Y-269.75
X203.15Y-236.75
X205.0Y-221.73
X205.0Y-224.27
X205.5Y-254.75
X205.5Y-269.75
X206.75Y-195.5
X211.85Y-236.75
X215.0Y-209.25
X215.0Y-234.75
X224.75Y-229.15
X224.75Y-237.85
X229.5Y-181.21
X229.5Y-186.29
X230.25Y-207.25
X230.25Y-221.75
X237.9Y-265.75
X237.9Y-271.0
X238.65Y-245.25
X246.6Y-265.75
X246.6Y-271.0
X247.35Y-245.25
X259.5Y-228.25
X260.5Y-235.5
X262.9Y-220.75
X263.15Y-242.5
X264.25Y-195.4
X264.25Y-204.1
X271.5Y-181.25
X271.5Y-186.33
X271.5Y-191.75
X271.5Y-206.75
X271.6Y-220.75
X271.85Y-242.5
X274.0Y-235.5
X274.5Y-228.25
X283.25Y-235.75
X283.25Y-261.25
X295.75Y-235.75
X295.75Y-261.25
X302.75Y-248.75
X313.0Y-189.0
X313.0Y-204.5
X313.65Y-208.0
X319.65Y-270.0
X322.25Y-189.25
X322.25Y-204.25
X322.35Y-208.0
X328.25Y-248.75
X328.35Y-270.0
X330.0Y-210.0
X330.0Y-220.25
X333.0Y-238.5
X333.0Y-253.5
X339.05Y-243.25
X345.97Y-198.5
X355.5Y-210.0
X355.5Y-220.25
X365.0Y-253.75
X379.45Y-243.25
X381.53Y-198.5
X390.5Y-253.75
X415.72Y-202.0
X441.65Y-183.25
X441.65Y-191.25
X450.35Y-183.25
X450.35Y-191.25
X451.28Y-202.0
X481.8Y-256.0
X485.23Y-244.0
X487.77Y-244.0
X494.0Y-226.65
X494.0Y-235.35
X502.48Y-232.5
X505.02Y-232.5
X522.2Y-256.0
T6
X239.5Y-186.25
X258.5Y-186.25
X283.0Y-186.5
X302.0Y-186.5
X305.5Y-239.5
X324.5Y-239.5
X326.75Y-177.25
X345.75Y-177.25
T7
X205.71Y-240.67
X205.71Y-248.29
X205.71Y-250.83
X210.79Y-240.67
X210.79Y-248.29
X210.79Y-250.83
X240.21Y-250.17
X240.21Y-252.71
X240.21Y-260.33
X245.29Y-250.17
X245.29Y-252.71
X245.29Y-260.33
X321.0Y-256.34
X321.0Y-258.88
X321.0Y-266.5
X326.08Y-256.34
X326.08Y-258.88
X326.08Y-266.5
T8
X179.0Y-245.25
X198.5Y-245.25
X222.75Y-197.0
X222.75Y-204.5
X312.75Y-177.25
X312.75Y-182.25
X326.25Y-186.5
X330.0Y-234.0
X345.75Y-186.5
X349.5Y-234.0
X358.0Y-181.5
X358.0Y-186.5
X367.5Y-186.75
X367.75Y-180.0
X390.5Y-180.25
X390.5Y-186.75
X398.5Y-181.75
X398.5Y-186.75
X500.25Y-186.25
X502.0Y-212.5
X502.0Y-220.0
X502.79Y-186.26
X505.33Y-186.26
T9
X413.0Y-187.5
X435.5Y-187.5
T10
X217.9Y-270.2
X222.9Y-270.2
X227.9Y-270.2
X257.9Y-270.2
X262.9Y-270.2
X267.9Y-270.2
X297.9Y-270.2
X302.9Y-270.2
X307.9Y-270.2
X337.9Y-270.2
X342.9Y-270.2
X347.9Y-270.2
X377.9Y-270.2
X382.9Y-270.2
X387.9Y-270.2
X417.9Y-270.2
X422.9Y-270.2
X427.9Y-270.2
X457.9Y-270.2
X462.9Y-270.2
X467.9Y-270.2
X497.9Y-270.2
X502.9Y-270.2
X507.9Y-270.2
T11
X134.8Y-256.9
X134.8Y-263.2
X134.8Y-269.5
X151.0Y-256.9
X151.0Y-263.2
X151.0Y-269.5
X164.8Y-256.9
X164.8Y-263.2
X164.8Y-269.5
X181.0Y-256.9
X181.0Y-263.2
X181.0Y-269.5
X189.75Y-271.75
X200.5Y-271.75
X241.25Y-152.0
X250.75Y-260.75
X259.5Y-260.75
X265.75Y-152.0
X268.0Y-260.75
X304.65Y-91.95
X304.65Y-98.25
X304.65Y-104.55
X320.85Y-91.95
X320.85Y-98.25
X320.85Y-104.55
X337.15Y-91.95
X337.15Y-98.25
X337.15Y-104.55
X353.35Y-91.95
X353.35Y-98.25
X353.35Y-104.55
X360.75Y-256.0
X374.5Y-186.25
X379.5Y-186.25
X381.25Y-220.0
X382.75Y-179.5
X396.0Y-251.25
X409.0Y-179.5
X450.5Y-220.0
X455.0Y-183.25
X464.75Y-183.25
X474.5Y-183.25
X481.75Y-193.25
X486.75Y-193.25
X521.0Y-206.0
X521.25Y-217.0
T12
X165.264Y-228.245
X165.264Y-221.755
X169.078Y-233.494
X169.078Y-216.505
X175.25Y-214.5
X181.422Y-233.495
X181.422Y-216.506
X185.236Y-228.245
X185.236Y-221.755
X235.139Y-228.245
X235.139Y-221.755
X238.953Y-233.494
X238.953Y-216.505
X245.125Y-214.5
X251.297Y-233.495
X251.297Y-216.506
X255.111Y-228.245
X255.111Y-221.755
X305.014Y-228.245
X305.014Y-221.755
X308.828Y-233.494
X308.828Y-216.505
X315.0Y-214.5
X321.172Y-233.495
X321.172Y-216.506
X324.986Y-228.245
X324.986Y-221.755
T13
X304.0Y-120.75
X321.0Y-120.75
X430.0Y-230.0
X435.0Y-219.0
X441.5Y-230.0
T14
X490.04Y-189.355
X515.54Y-189.355
T15
X387.99Y-220.025
X387.99Y-229.975
X395.025Y-212.99
X395.025Y-237.01
X404.975Y-212.99
X404.975Y-237.01
X412.01Y-220.025
X412.01Y-229.975
X456.74Y-220.025
X456.74Y-229.975
X463.775Y-212.99
X463.775Y-237.01
X473.725Y-212.99
X473.725Y-237.01
X480.76Y-220.025
X480.76Y-229.975
T16
X490.04Y-189.355
X515.54Y-189.355
T17
X123.75Y-200.5
X123.75Y-262.5
X217.5Y-152.0
X361.5Y-152.0
X520.5Y-226.5
X520.5Y-269.75
M30
