%TF.GenerationSoftware,KiCad,Pcbnew,9.0.4*%
%TF.CreationDate,2025-10-07T22:59:05+02:00*%
%TF.ProjectId,wb50,77623530-2e6b-4696-9361-645f70636258,rev?*%
%TF.SameCoordinates,Original*%
%TF.FileFunction,Drillmap*%
%TF.FilePolarity,Positive*%
%FSLAX45Y45*%
G04 Gerber Fmt 4.5, Leading zero omitted, Abs format (unit mm)*
G04 Created by KiCad (PCBNEW 9.0.4) date 2025-10-07 22:59:05*
%MOMM*%
%LPD*%
G01*
G04 APERTURE LIST*
%ADD10C,0.200000*%
G04 APERTURE END LIST*
D10*
X36750000Y-17600000D02*
G75*
G02*
X36550000Y-17400000I0J200000D01*
G01*
X52450000Y-17600000D02*
X52450000Y-27600000D01*
X52450000Y-27600000D02*
X11950000Y-27600000D01*
X36550000Y-17400000D02*
X36550000Y-8600000D01*
X21350000Y-8600000D02*
X36550000Y-8600000D01*
X21350000Y-17400000D02*
G75*
G02*
X21150000Y-17600000I-200000J0D01*
G01*
X36750000Y-17600000D02*
X52450000Y-17600000D01*
X11950000Y-17600000D02*
X21150000Y-17600000D01*
X11950000Y-27600000D02*
X11950000Y-17600000D01*
X21350000Y-17400000D02*
X21350000Y-8600000D01*
X12200777Y-27921484D02*
X12200777Y-27721484D01*
X12200777Y-27721484D02*
X12248396Y-27721484D01*
X12248396Y-27721484D02*
X12276967Y-27731008D01*
X12276967Y-27731008D02*
X12296015Y-27750055D01*
X12296015Y-27750055D02*
X12305539Y-27769103D01*
X12305539Y-27769103D02*
X12315062Y-27807198D01*
X12315062Y-27807198D02*
X12315062Y-27835769D01*
X12315062Y-27835769D02*
X12305539Y-27873865D01*
X12305539Y-27873865D02*
X12296015Y-27892912D01*
X12296015Y-27892912D02*
X12276967Y-27911960D01*
X12276967Y-27911960D02*
X12248396Y-27921484D01*
X12248396Y-27921484D02*
X12200777Y-27921484D01*
X12400777Y-27921484D02*
X12400777Y-27788150D01*
X12400777Y-27826246D02*
X12410301Y-27807198D01*
X12410301Y-27807198D02*
X12419824Y-27797674D01*
X12419824Y-27797674D02*
X12438872Y-27788150D01*
X12438872Y-27788150D02*
X12457920Y-27788150D01*
X12524586Y-27921484D02*
X12524586Y-27788150D01*
X12524586Y-27721484D02*
X12515062Y-27731008D01*
X12515062Y-27731008D02*
X12524586Y-27740531D01*
X12524586Y-27740531D02*
X12534110Y-27731008D01*
X12534110Y-27731008D02*
X12524586Y-27721484D01*
X12524586Y-27721484D02*
X12524586Y-27740531D01*
X12648396Y-27921484D02*
X12629348Y-27911960D01*
X12629348Y-27911960D02*
X12619824Y-27892912D01*
X12619824Y-27892912D02*
X12619824Y-27721484D01*
X12753158Y-27921484D02*
X12734110Y-27911960D01*
X12734110Y-27911960D02*
X12724586Y-27892912D01*
X12724586Y-27892912D02*
X12724586Y-27721484D01*
X12981729Y-27921484D02*
X12981729Y-27721484D01*
X12981729Y-27721484D02*
X13048396Y-27864341D01*
X13048396Y-27864341D02*
X13115062Y-27721484D01*
X13115062Y-27721484D02*
X13115062Y-27921484D01*
X13296015Y-27921484D02*
X13296015Y-27816722D01*
X13296015Y-27816722D02*
X13286491Y-27797674D01*
X13286491Y-27797674D02*
X13267443Y-27788150D01*
X13267443Y-27788150D02*
X13229348Y-27788150D01*
X13229348Y-27788150D02*
X13210301Y-27797674D01*
X13296015Y-27911960D02*
X13276967Y-27921484D01*
X13276967Y-27921484D02*
X13229348Y-27921484D01*
X13229348Y-27921484D02*
X13210301Y-27911960D01*
X13210301Y-27911960D02*
X13200777Y-27892912D01*
X13200777Y-27892912D02*
X13200777Y-27873865D01*
X13200777Y-27873865D02*
X13210301Y-27854817D01*
X13210301Y-27854817D02*
X13229348Y-27845293D01*
X13229348Y-27845293D02*
X13276967Y-27845293D01*
X13276967Y-27845293D02*
X13296015Y-27835769D01*
X13391253Y-27788150D02*
X13391253Y-27988150D01*
X13391253Y-27797674D02*
X13410301Y-27788150D01*
X13410301Y-27788150D02*
X13448396Y-27788150D01*
X13448396Y-27788150D02*
X13467443Y-27797674D01*
X13467443Y-27797674D02*
X13476967Y-27807198D01*
X13476967Y-27807198D02*
X13486491Y-27826246D01*
X13486491Y-27826246D02*
X13486491Y-27883388D01*
X13486491Y-27883388D02*
X13476967Y-27902436D01*
X13476967Y-27902436D02*
X13467443Y-27911960D01*
X13467443Y-27911960D02*
X13448396Y-27921484D01*
X13448396Y-27921484D02*
X13410301Y-27921484D01*
X13410301Y-27921484D02*
X13391253Y-27911960D01*
X13572205Y-27902436D02*
X13581729Y-27911960D01*
X13581729Y-27911960D02*
X13572205Y-27921484D01*
X13572205Y-27921484D02*
X13562682Y-27911960D01*
X13562682Y-27911960D02*
X13572205Y-27902436D01*
X13572205Y-27902436D02*
X13572205Y-27921484D01*
X13572205Y-27797674D02*
X13581729Y-27807198D01*
X13581729Y-27807198D02*
X13572205Y-27816722D01*
X13572205Y-27816722D02*
X13562682Y-27807198D01*
X13562682Y-27807198D02*
X13572205Y-27797674D01*
X13572205Y-27797674D02*
X13572205Y-27816722D01*
M02*
