G04 #@! TF.GenerationSoftware,KiCad,Pcbnew,9.0.4*
G04 #@! TF.CreationDate,2025-10-07T22:59:05+02:00*
G04 #@! TF.ProjectId,wb50,77623530-2e6b-4696-9361-645f70636258,rev?*
G04 #@! TF.SameCoordinates,Original*
G04 #@! TF.FileFunction,Legend,Bot*
G04 #@! TF.FilePolarity,Positive*
%FSLAX46Y46*%
G04 Gerber Fmt 4.6, Leading zero omitted, Abs format (unit mm)*
G04 Created by KiCad (PCBNEW 9.0.4) date 2025-10-07 22:59:05*
%MOMM*%
%LPD*%
G01*
G04 APERTURE LIST*
%ADD10C,0.300000*%
%ADD11C,0.150000*%
%ADD12C,0.120000*%
%ADD13C,0.254001*%
%ADD14C,0.059995*%
%ADD15C,3.900000*%
%ADD16C,7.000000*%
%ADD17C,1.800000*%
%ADD18C,3.000000*%
%ADD19C,2.100000*%
%ADD20C,1.300000*%
%ADD21C,2.600000*%
%ADD22C,1.400000*%
%ADD23C,1.600000*%
%ADD24C,4.000000*%
%ADD25C,1.700000*%
%ADD26C,3.800000*%
%ADD27C,1.879604*%
%ADD28C,1.524003*%
%ADD29C,1.500000*%
%ADD30C,3.200000*%
%ADD31C,2.300000*%
%ADD32C,2.000000*%
%ADD33C,2.500000*%
%ADD34C,2.200000*%
%ADD35R,1.800000X2.600000*%
%ADD36O,1.800000X2.600000*%
%ADD37C,3.500000*%
%ADD38C,2.800000*%
%ADD39R,1.400000X1.300000*%
%ADD40R,1.400000X2.000000*%
G04 APERTURE END LIST*
D10*
X457338346Y-179050828D02*
X456409774Y-179050828D01*
X456409774Y-179050828D02*
X456909774Y-179622257D01*
X456909774Y-179622257D02*
X456695489Y-179622257D01*
X456695489Y-179622257D02*
X456552632Y-179693685D01*
X456552632Y-179693685D02*
X456481203Y-179765114D01*
X456481203Y-179765114D02*
X456409774Y-179907971D01*
X456409774Y-179907971D02*
X456409774Y-180265114D01*
X456409774Y-180265114D02*
X456481203Y-180407971D01*
X456481203Y-180407971D02*
X456552632Y-180479400D01*
X456552632Y-180479400D02*
X456695489Y-180550828D01*
X456695489Y-180550828D02*
X457124060Y-180550828D01*
X457124060Y-180550828D02*
X457266917Y-180479400D01*
X457266917Y-180479400D02*
X457338346Y-180407971D01*
X455124061Y-179550828D02*
X455124061Y-180550828D01*
X455481203Y-178979400D02*
X455838346Y-180050828D01*
X455838346Y-180050828D02*
X454909775Y-180050828D01*
X453624061Y-179050828D02*
X454338347Y-179050828D01*
X454338347Y-179050828D02*
X454409775Y-179765114D01*
X454409775Y-179765114D02*
X454338347Y-179693685D01*
X454338347Y-179693685D02*
X454195490Y-179622257D01*
X454195490Y-179622257D02*
X453838347Y-179622257D01*
X453838347Y-179622257D02*
X453695490Y-179693685D01*
X453695490Y-179693685D02*
X453624061Y-179765114D01*
X453624061Y-179765114D02*
X453552632Y-179907971D01*
X453552632Y-179907971D02*
X453552632Y-180265114D01*
X453552632Y-180265114D02*
X453624061Y-180407971D01*
X453624061Y-180407971D02*
X453695490Y-180479400D01*
X453695490Y-180479400D02*
X453838347Y-180550828D01*
X453838347Y-180550828D02*
X454195490Y-180550828D01*
X454195490Y-180550828D02*
X454338347Y-180479400D01*
X454338347Y-180479400D02*
X454409775Y-180407971D01*
X453124061Y-179050828D02*
X452624061Y-180550828D01*
X452624061Y-180550828D02*
X452124061Y-179050828D01*
X451838347Y-179979400D02*
X451766919Y-179907971D01*
X451766919Y-179907971D02*
X451624062Y-179836542D01*
X451624062Y-179836542D02*
X451338347Y-179979400D01*
X451338347Y-179979400D02*
X451195490Y-179907971D01*
X451195490Y-179907971D02*
X451124062Y-179836542D01*
X521909774Y-211800828D02*
X522766917Y-211800828D01*
X522338346Y-211800828D02*
X522338346Y-210300828D01*
X522338346Y-210300828D02*
X522481203Y-210515114D01*
X522481203Y-210515114D02*
X522624060Y-210657971D01*
X522624060Y-210657971D02*
X522766917Y-210729400D01*
X521338346Y-210443685D02*
X521266918Y-210372257D01*
X521266918Y-210372257D02*
X521124061Y-210300828D01*
X521124061Y-210300828D02*
X520766918Y-210300828D01*
X520766918Y-210300828D02*
X520624061Y-210372257D01*
X520624061Y-210372257D02*
X520552632Y-210443685D01*
X520552632Y-210443685D02*
X520481203Y-210586542D01*
X520481203Y-210586542D02*
X520481203Y-210729400D01*
X520481203Y-210729400D02*
X520552632Y-210943685D01*
X520552632Y-210943685D02*
X521409775Y-211800828D01*
X521409775Y-211800828D02*
X520481203Y-211800828D01*
X519766918Y-211729400D02*
X519766918Y-211800828D01*
X519766918Y-211800828D02*
X519838347Y-211943685D01*
X519838347Y-211943685D02*
X519909775Y-212015114D01*
X518481204Y-210300828D02*
X518766918Y-210300828D01*
X518766918Y-210300828D02*
X518909775Y-210372257D01*
X518909775Y-210372257D02*
X518981204Y-210443685D01*
X518981204Y-210443685D02*
X519124061Y-210657971D01*
X519124061Y-210657971D02*
X519195489Y-210943685D01*
X519195489Y-210943685D02*
X519195489Y-211515114D01*
X519195489Y-211515114D02*
X519124061Y-211657971D01*
X519124061Y-211657971D02*
X519052632Y-211729400D01*
X519052632Y-211729400D02*
X518909775Y-211800828D01*
X518909775Y-211800828D02*
X518624061Y-211800828D01*
X518624061Y-211800828D02*
X518481204Y-211729400D01*
X518481204Y-211729400D02*
X518409775Y-211657971D01*
X518409775Y-211657971D02*
X518338346Y-211515114D01*
X518338346Y-211515114D02*
X518338346Y-211157971D01*
X518338346Y-211157971D02*
X518409775Y-211015114D01*
X518409775Y-211015114D02*
X518481204Y-210943685D01*
X518481204Y-210943685D02*
X518624061Y-210872257D01*
X518624061Y-210872257D02*
X518909775Y-210872257D01*
X518909775Y-210872257D02*
X519052632Y-210943685D01*
X519052632Y-210943685D02*
X519124061Y-211015114D01*
X519124061Y-211015114D02*
X519195489Y-211157971D01*
X517909775Y-210300828D02*
X517409775Y-211800828D01*
X517409775Y-211800828D02*
X516909775Y-210300828D01*
X516624061Y-211229400D02*
X516552633Y-211157971D01*
X516552633Y-211157971D02*
X516409776Y-211086542D01*
X516409776Y-211086542D02*
X516124061Y-211229400D01*
X516124061Y-211229400D02*
X515981204Y-211157971D01*
X515981204Y-211157971D02*
X515909776Y-211086542D01*
X476588346Y-179050828D02*
X475659774Y-179050828D01*
X475659774Y-179050828D02*
X476159774Y-179622257D01*
X476159774Y-179622257D02*
X475945489Y-179622257D01*
X475945489Y-179622257D02*
X475802632Y-179693685D01*
X475802632Y-179693685D02*
X475731203Y-179765114D01*
X475731203Y-179765114D02*
X475659774Y-179907971D01*
X475659774Y-179907971D02*
X475659774Y-180265114D01*
X475659774Y-180265114D02*
X475731203Y-180407971D01*
X475731203Y-180407971D02*
X475802632Y-180479400D01*
X475802632Y-180479400D02*
X475945489Y-180550828D01*
X475945489Y-180550828D02*
X476374060Y-180550828D01*
X476374060Y-180550828D02*
X476516917Y-180479400D01*
X476516917Y-180479400D02*
X476588346Y-180407971D01*
X474374061Y-179550828D02*
X474374061Y-180550828D01*
X474731203Y-178979400D02*
X475088346Y-180050828D01*
X475088346Y-180050828D02*
X474159775Y-180050828D01*
X472874061Y-179050828D02*
X473588347Y-179050828D01*
X473588347Y-179050828D02*
X473659775Y-179765114D01*
X473659775Y-179765114D02*
X473588347Y-179693685D01*
X473588347Y-179693685D02*
X473445490Y-179622257D01*
X473445490Y-179622257D02*
X473088347Y-179622257D01*
X473088347Y-179622257D02*
X472945490Y-179693685D01*
X472945490Y-179693685D02*
X472874061Y-179765114D01*
X472874061Y-179765114D02*
X472802632Y-179907971D01*
X472802632Y-179907971D02*
X472802632Y-180265114D01*
X472802632Y-180265114D02*
X472874061Y-180407971D01*
X472874061Y-180407971D02*
X472945490Y-180479400D01*
X472945490Y-180479400D02*
X473088347Y-180550828D01*
X473088347Y-180550828D02*
X473445490Y-180550828D01*
X473445490Y-180550828D02*
X473588347Y-180479400D01*
X473588347Y-180479400D02*
X473659775Y-180407971D01*
X472374061Y-179050828D02*
X471874061Y-180550828D01*
X471874061Y-180550828D02*
X471374061Y-179050828D01*
X471088347Y-179979400D02*
X471016919Y-179907971D01*
X471016919Y-179907971D02*
X470874062Y-179836542D01*
X470874062Y-179836542D02*
X470588347Y-179979400D01*
X470588347Y-179979400D02*
X470445490Y-179907971D01*
X470445490Y-179907971D02*
X470374062Y-179836542D01*
X465659774Y-179122257D02*
X465802632Y-179050828D01*
X465802632Y-179050828D02*
X466016917Y-179050828D01*
X466016917Y-179050828D02*
X466231203Y-179122257D01*
X466231203Y-179122257D02*
X466374060Y-179265114D01*
X466374060Y-179265114D02*
X466445489Y-179407971D01*
X466445489Y-179407971D02*
X466516917Y-179693685D01*
X466516917Y-179693685D02*
X466516917Y-179907971D01*
X466516917Y-179907971D02*
X466445489Y-180193685D01*
X466445489Y-180193685D02*
X466374060Y-180336542D01*
X466374060Y-180336542D02*
X466231203Y-180479400D01*
X466231203Y-180479400D02*
X466016917Y-180550828D01*
X466016917Y-180550828D02*
X465874060Y-180550828D01*
X465874060Y-180550828D02*
X465659774Y-180479400D01*
X465659774Y-180479400D02*
X465588346Y-180407971D01*
X465588346Y-180407971D02*
X465588346Y-179907971D01*
X465588346Y-179907971D02*
X465874060Y-179907971D01*
X464945489Y-180550828D02*
X464945489Y-179050828D01*
X464945489Y-179050828D02*
X464088346Y-180550828D01*
X464088346Y-180550828D02*
X464088346Y-179050828D01*
X463374060Y-180550828D02*
X463374060Y-179050828D01*
X463374060Y-179050828D02*
X463016917Y-179050828D01*
X463016917Y-179050828D02*
X462802631Y-179122257D01*
X462802631Y-179122257D02*
X462659774Y-179265114D01*
X462659774Y-179265114D02*
X462588345Y-179407971D01*
X462588345Y-179407971D02*
X462516917Y-179693685D01*
X462516917Y-179693685D02*
X462516917Y-179907971D01*
X462516917Y-179907971D02*
X462588345Y-180193685D01*
X462588345Y-180193685D02*
X462659774Y-180336542D01*
X462659774Y-180336542D02*
X462802631Y-180479400D01*
X462802631Y-180479400D02*
X463016917Y-180550828D01*
X463016917Y-180550828D02*
X463374060Y-180550828D01*
D11*
X465564285Y-232254819D02*
X466135713Y-232254819D01*
X465849999Y-232254819D02*
X465849999Y-231254819D01*
X465849999Y-231254819D02*
X465945237Y-231397676D01*
X465945237Y-231397676D02*
X466040475Y-231492914D01*
X466040475Y-231492914D02*
X466135713Y-231540533D01*
X396814285Y-232254819D02*
X397385713Y-232254819D01*
X397099999Y-232254819D02*
X397099999Y-231254819D01*
X397099999Y-231254819D02*
X397195237Y-231397676D01*
X397195237Y-231397676D02*
X397290475Y-231492914D01*
X397290475Y-231492914D02*
X397385713Y-231540533D01*
X237619319Y-236951268D02*
X237795901Y-236407807D01*
X237707610Y-236679538D02*
X236756553Y-236370521D01*
X236756553Y-236370521D02*
X236921849Y-236324089D01*
X236921849Y-236324089D02*
X237041856Y-236262943D01*
X237041856Y-236262943D02*
X237116574Y-236187081D01*
X462928571Y-253933009D02*
X462785714Y-253980628D01*
X462785714Y-253980628D02*
X462738095Y-254028247D01*
X462738095Y-254028247D02*
X462690476Y-254123485D01*
X462690476Y-254123485D02*
X462690476Y-254266342D01*
X462690476Y-254266342D02*
X462738095Y-254361580D01*
X462738095Y-254361580D02*
X462785714Y-254409200D01*
X462785714Y-254409200D02*
X462880952Y-254456819D01*
X462880952Y-254456819D02*
X463261904Y-254456819D01*
X463261904Y-254456819D02*
X463261904Y-253456819D01*
X463261904Y-253456819D02*
X462928571Y-253456819D01*
X462928571Y-253456819D02*
X462833333Y-253504438D01*
X462833333Y-253504438D02*
X462785714Y-253552057D01*
X462785714Y-253552057D02*
X462738095Y-253647295D01*
X462738095Y-253647295D02*
X462738095Y-253742533D01*
X462738095Y-253742533D02*
X462785714Y-253837771D01*
X462785714Y-253837771D02*
X462833333Y-253885390D01*
X462833333Y-253885390D02*
X462928571Y-253933009D01*
X462928571Y-253933009D02*
X463261904Y-253933009D01*
X462261904Y-254456819D02*
X462261904Y-253790152D01*
X462261904Y-253456819D02*
X462309523Y-253504438D01*
X462309523Y-253504438D02*
X462261904Y-253552057D01*
X462261904Y-253552057D02*
X462214285Y-253504438D01*
X462214285Y-253504438D02*
X462261904Y-253456819D01*
X462261904Y-253456819D02*
X462261904Y-253552057D01*
X461357143Y-254456819D02*
X461357143Y-253933009D01*
X461357143Y-253933009D02*
X461404762Y-253837771D01*
X461404762Y-253837771D02*
X461500000Y-253790152D01*
X461500000Y-253790152D02*
X461690476Y-253790152D01*
X461690476Y-253790152D02*
X461785714Y-253837771D01*
X461357143Y-254409200D02*
X461452381Y-254456819D01*
X461452381Y-254456819D02*
X461690476Y-254456819D01*
X461690476Y-254456819D02*
X461785714Y-254409200D01*
X461785714Y-254409200D02*
X461833333Y-254313961D01*
X461833333Y-254313961D02*
X461833333Y-254218723D01*
X461833333Y-254218723D02*
X461785714Y-254123485D01*
X461785714Y-254123485D02*
X461690476Y-254075866D01*
X461690476Y-254075866D02*
X461452381Y-254075866D01*
X461452381Y-254075866D02*
X461357143Y-254028247D01*
X460928571Y-254409200D02*
X460833333Y-254456819D01*
X460833333Y-254456819D02*
X460642857Y-254456819D01*
X460642857Y-254456819D02*
X460547619Y-254409200D01*
X460547619Y-254409200D02*
X460500000Y-254313961D01*
X460500000Y-254313961D02*
X460500000Y-254266342D01*
X460500000Y-254266342D02*
X460547619Y-254171104D01*
X460547619Y-254171104D02*
X460642857Y-254123485D01*
X460642857Y-254123485D02*
X460785714Y-254123485D01*
X460785714Y-254123485D02*
X460880952Y-254075866D01*
X460880952Y-254075866D02*
X460928571Y-253980628D01*
X460928571Y-253980628D02*
X460928571Y-253933009D01*
X460928571Y-253933009D02*
X460880952Y-253837771D01*
X460880952Y-253837771D02*
X460785714Y-253790152D01*
X460785714Y-253790152D02*
X460642857Y-253790152D01*
X460642857Y-253790152D02*
X460547619Y-253837771D01*
X460119047Y-254171104D02*
X459642857Y-254171104D01*
X460214285Y-254456819D02*
X459880952Y-253456819D01*
X459880952Y-253456819D02*
X459547619Y-254456819D01*
X458690476Y-254456819D02*
X459261904Y-254456819D01*
X458976190Y-254456819D02*
X458976190Y-253456819D01*
X458976190Y-253456819D02*
X459071428Y-253599676D01*
X459071428Y-253599676D02*
X459166666Y-253694914D01*
X459166666Y-253694914D02*
X459261904Y-253742533D01*
X439166666Y-253504438D02*
X439261904Y-253456819D01*
X439261904Y-253456819D02*
X439404761Y-253456819D01*
X439404761Y-253456819D02*
X439547618Y-253504438D01*
X439547618Y-253504438D02*
X439642856Y-253599676D01*
X439642856Y-253599676D02*
X439690475Y-253694914D01*
X439690475Y-253694914D02*
X439738094Y-253885390D01*
X439738094Y-253885390D02*
X439738094Y-254028247D01*
X439738094Y-254028247D02*
X439690475Y-254218723D01*
X439690475Y-254218723D02*
X439642856Y-254313961D01*
X439642856Y-254313961D02*
X439547618Y-254409200D01*
X439547618Y-254409200D02*
X439404761Y-254456819D01*
X439404761Y-254456819D02*
X439309523Y-254456819D01*
X439309523Y-254456819D02*
X439166666Y-254409200D01*
X439166666Y-254409200D02*
X439119047Y-254361580D01*
X439119047Y-254361580D02*
X439119047Y-254028247D01*
X439119047Y-254028247D02*
X439309523Y-254028247D01*
X438690475Y-254456819D02*
X438690475Y-253456819D01*
X438690475Y-253456819D02*
X438119047Y-254456819D01*
X438119047Y-254456819D02*
X438119047Y-253456819D01*
X437642856Y-254456819D02*
X437642856Y-253456819D01*
X437642856Y-253456819D02*
X437404761Y-253456819D01*
X437404761Y-253456819D02*
X437261904Y-253504438D01*
X437261904Y-253504438D02*
X437166666Y-253599676D01*
X437166666Y-253599676D02*
X437119047Y-253694914D01*
X437119047Y-253694914D02*
X437071428Y-253885390D01*
X437071428Y-253885390D02*
X437071428Y-254028247D01*
X437071428Y-254028247D02*
X437119047Y-254218723D01*
X437119047Y-254218723D02*
X437166666Y-254313961D01*
X437166666Y-254313961D02*
X437261904Y-254409200D01*
X437261904Y-254409200D02*
X437404761Y-254456819D01*
X437404761Y-254456819D02*
X437642856Y-254456819D01*
X436642856Y-254075866D02*
X435880952Y-254075866D01*
X435404761Y-254456819D02*
X435404761Y-253456819D01*
X435404761Y-253456819D02*
X435071428Y-254171104D01*
X435071428Y-254171104D02*
X434738095Y-253456819D01*
X434738095Y-253456819D02*
X434738095Y-254456819D01*
X433880952Y-254409200D02*
X433976190Y-254456819D01*
X433976190Y-254456819D02*
X434166666Y-254456819D01*
X434166666Y-254456819D02*
X434261904Y-254409200D01*
X434261904Y-254409200D02*
X434309523Y-254313961D01*
X434309523Y-254313961D02*
X434309523Y-253933009D01*
X434309523Y-253933009D02*
X434261904Y-253837771D01*
X434261904Y-253837771D02*
X434166666Y-253790152D01*
X434166666Y-253790152D02*
X433976190Y-253790152D01*
X433976190Y-253790152D02*
X433880952Y-253837771D01*
X433880952Y-253837771D02*
X433833333Y-253933009D01*
X433833333Y-253933009D02*
X433833333Y-254028247D01*
X433833333Y-254028247D02*
X434309523Y-254123485D01*
X433452380Y-254409200D02*
X433357142Y-254456819D01*
X433357142Y-254456819D02*
X433166666Y-254456819D01*
X433166666Y-254456819D02*
X433071428Y-254409200D01*
X433071428Y-254409200D02*
X433023809Y-254313961D01*
X433023809Y-254313961D02*
X433023809Y-254266342D01*
X433023809Y-254266342D02*
X433071428Y-254171104D01*
X433071428Y-254171104D02*
X433166666Y-254123485D01*
X433166666Y-254123485D02*
X433309523Y-254123485D01*
X433309523Y-254123485D02*
X433404761Y-254075866D01*
X433404761Y-254075866D02*
X433452380Y-253980628D01*
X433452380Y-253980628D02*
X433452380Y-253933009D01*
X433452380Y-253933009D02*
X433404761Y-253837771D01*
X433404761Y-253837771D02*
X433309523Y-253790152D01*
X433309523Y-253790152D02*
X433166666Y-253790152D01*
X433166666Y-253790152D02*
X433071428Y-253837771D01*
X432642856Y-254409200D02*
X432547618Y-254456819D01*
X432547618Y-254456819D02*
X432357142Y-254456819D01*
X432357142Y-254456819D02*
X432261904Y-254409200D01*
X432261904Y-254409200D02*
X432214285Y-254313961D01*
X432214285Y-254313961D02*
X432214285Y-254266342D01*
X432214285Y-254266342D02*
X432261904Y-254171104D01*
X432261904Y-254171104D02*
X432357142Y-254123485D01*
X432357142Y-254123485D02*
X432499999Y-254123485D01*
X432499999Y-254123485D02*
X432595237Y-254075866D01*
X432595237Y-254075866D02*
X432642856Y-253980628D01*
X432642856Y-253980628D02*
X432642856Y-253933009D01*
X432642856Y-253933009D02*
X432595237Y-253837771D01*
X432595237Y-253837771D02*
X432499999Y-253790152D01*
X432499999Y-253790152D02*
X432357142Y-253790152D01*
X432357142Y-253790152D02*
X432261904Y-253837771D01*
X431261904Y-254456819D02*
X431833332Y-254456819D01*
X431547618Y-254456819D02*
X431547618Y-253456819D01*
X431547618Y-253456819D02*
X431642856Y-253599676D01*
X431642856Y-253599676D02*
X431738094Y-253694914D01*
X431738094Y-253694914D02*
X431833332Y-253742533D01*
X167744320Y-236951268D02*
X167920902Y-236407807D01*
X167832611Y-236679538D02*
X166881554Y-236370521D01*
X166881554Y-236370521D02*
X167046850Y-236324089D01*
X167046850Y-236324089D02*
X167166857Y-236262943D01*
X167166857Y-236262943D02*
X167241575Y-236187081D01*
X307494319Y-236951268D02*
X307670901Y-236407807D01*
X307582610Y-236679538D02*
X306631553Y-236370521D01*
X306631553Y-236370521D02*
X306796849Y-236324089D01*
X306796849Y-236324089D02*
X306916856Y-236262943D01*
X306916856Y-236262943D02*
X306991574Y-236187081D01*
X465804870Y-254761905D02*
X466614393Y-254761905D01*
X466614393Y-254761905D02*
X466709631Y-254809524D01*
X466709631Y-254809524D02*
X466757251Y-254857143D01*
X466757251Y-254857143D02*
X466804870Y-254952381D01*
X466804870Y-254952381D02*
X466804870Y-255142857D01*
X466804870Y-255142857D02*
X466757251Y-255238095D01*
X466757251Y-255238095D02*
X466709631Y-255285714D01*
X466709631Y-255285714D02*
X466614393Y-255333333D01*
X466614393Y-255333333D02*
X465804870Y-255333333D01*
X465804870Y-255714286D02*
X465804870Y-256333333D01*
X465804870Y-256333333D02*
X466185822Y-256000000D01*
X466185822Y-256000000D02*
X466185822Y-256142857D01*
X466185822Y-256142857D02*
X466233441Y-256238095D01*
X466233441Y-256238095D02*
X466281060Y-256285714D01*
X466281060Y-256285714D02*
X466376298Y-256333333D01*
X466376298Y-256333333D02*
X466614393Y-256333333D01*
X466614393Y-256333333D02*
X466709631Y-256285714D01*
X466709631Y-256285714D02*
X466757251Y-256238095D01*
X466757251Y-256238095D02*
X466804870Y-256142857D01*
X466804870Y-256142857D02*
X466804870Y-255857143D01*
X466804870Y-255857143D02*
X466757251Y-255761905D01*
X466757251Y-255761905D02*
X466709631Y-255714286D01*
X465804870Y-256666667D02*
X465804870Y-257285714D01*
X465804870Y-257285714D02*
X466185822Y-256952381D01*
X466185822Y-256952381D02*
X466185822Y-257095238D01*
X466185822Y-257095238D02*
X466233441Y-257190476D01*
X466233441Y-257190476D02*
X466281060Y-257238095D01*
X466281060Y-257238095D02*
X466376298Y-257285714D01*
X466376298Y-257285714D02*
X466614393Y-257285714D01*
X466614393Y-257285714D02*
X466709631Y-257238095D01*
X466709631Y-257238095D02*
X466757251Y-257190476D01*
X466757251Y-257190476D02*
X466804870Y-257095238D01*
X466804870Y-257095238D02*
X466804870Y-256809524D01*
X466804870Y-256809524D02*
X466757251Y-256714286D01*
X466757251Y-256714286D02*
X466709631Y-256666667D01*
X412749999Y-253933009D02*
X412607142Y-253980628D01*
X412607142Y-253980628D02*
X412559523Y-254028247D01*
X412559523Y-254028247D02*
X412511904Y-254123485D01*
X412511904Y-254123485D02*
X412511904Y-254266342D01*
X412511904Y-254266342D02*
X412559523Y-254361580D01*
X412559523Y-254361580D02*
X412607142Y-254409200D01*
X412607142Y-254409200D02*
X412702380Y-254456819D01*
X412702380Y-254456819D02*
X413083332Y-254456819D01*
X413083332Y-254456819D02*
X413083332Y-253456819D01*
X413083332Y-253456819D02*
X412749999Y-253456819D01*
X412749999Y-253456819D02*
X412654761Y-253504438D01*
X412654761Y-253504438D02*
X412607142Y-253552057D01*
X412607142Y-253552057D02*
X412559523Y-253647295D01*
X412559523Y-253647295D02*
X412559523Y-253742533D01*
X412559523Y-253742533D02*
X412607142Y-253837771D01*
X412607142Y-253837771D02*
X412654761Y-253885390D01*
X412654761Y-253885390D02*
X412749999Y-253933009D01*
X412749999Y-253933009D02*
X413083332Y-253933009D01*
X412083332Y-254456819D02*
X412083332Y-253790152D01*
X412083332Y-253456819D02*
X412130951Y-253504438D01*
X412130951Y-253504438D02*
X412083332Y-253552057D01*
X412083332Y-253552057D02*
X412035713Y-253504438D01*
X412035713Y-253504438D02*
X412083332Y-253456819D01*
X412083332Y-253456819D02*
X412083332Y-253552057D01*
X411178571Y-254456819D02*
X411178571Y-253933009D01*
X411178571Y-253933009D02*
X411226190Y-253837771D01*
X411226190Y-253837771D02*
X411321428Y-253790152D01*
X411321428Y-253790152D02*
X411511904Y-253790152D01*
X411511904Y-253790152D02*
X411607142Y-253837771D01*
X411178571Y-254409200D02*
X411273809Y-254456819D01*
X411273809Y-254456819D02*
X411511904Y-254456819D01*
X411511904Y-254456819D02*
X411607142Y-254409200D01*
X411607142Y-254409200D02*
X411654761Y-254313961D01*
X411654761Y-254313961D02*
X411654761Y-254218723D01*
X411654761Y-254218723D02*
X411607142Y-254123485D01*
X411607142Y-254123485D02*
X411511904Y-254075866D01*
X411511904Y-254075866D02*
X411273809Y-254075866D01*
X411273809Y-254075866D02*
X411178571Y-254028247D01*
X410749999Y-254409200D02*
X410654761Y-254456819D01*
X410654761Y-254456819D02*
X410464285Y-254456819D01*
X410464285Y-254456819D02*
X410369047Y-254409200D01*
X410369047Y-254409200D02*
X410321428Y-254313961D01*
X410321428Y-254313961D02*
X410321428Y-254266342D01*
X410321428Y-254266342D02*
X410369047Y-254171104D01*
X410369047Y-254171104D02*
X410464285Y-254123485D01*
X410464285Y-254123485D02*
X410607142Y-254123485D01*
X410607142Y-254123485D02*
X410702380Y-254075866D01*
X410702380Y-254075866D02*
X410749999Y-253980628D01*
X410749999Y-253980628D02*
X410749999Y-253933009D01*
X410749999Y-253933009D02*
X410702380Y-253837771D01*
X410702380Y-253837771D02*
X410607142Y-253790152D01*
X410607142Y-253790152D02*
X410464285Y-253790152D01*
X410464285Y-253790152D02*
X410369047Y-253837771D01*
X409559523Y-253933009D02*
X409416666Y-253980628D01*
X409416666Y-253980628D02*
X409369047Y-254028247D01*
X409369047Y-254028247D02*
X409321428Y-254123485D01*
X409321428Y-254123485D02*
X409321428Y-254266342D01*
X409321428Y-254266342D02*
X409369047Y-254361580D01*
X409369047Y-254361580D02*
X409416666Y-254409200D01*
X409416666Y-254409200D02*
X409511904Y-254456819D01*
X409511904Y-254456819D02*
X409892856Y-254456819D01*
X409892856Y-254456819D02*
X409892856Y-253456819D01*
X409892856Y-253456819D02*
X409559523Y-253456819D01*
X409559523Y-253456819D02*
X409464285Y-253504438D01*
X409464285Y-253504438D02*
X409416666Y-253552057D01*
X409416666Y-253552057D02*
X409369047Y-253647295D01*
X409369047Y-253647295D02*
X409369047Y-253742533D01*
X409369047Y-253742533D02*
X409416666Y-253837771D01*
X409416666Y-253837771D02*
X409464285Y-253885390D01*
X409464285Y-253885390D02*
X409559523Y-253933009D01*
X409559523Y-253933009D02*
X409892856Y-253933009D01*
X408369047Y-254456819D02*
X408940475Y-254456819D01*
X408654761Y-254456819D02*
X408654761Y-253456819D01*
X408654761Y-253456819D02*
X408749999Y-253599676D01*
X408749999Y-253599676D02*
X408845237Y-253694914D01*
X408845237Y-253694914D02*
X408940475Y-253742533D01*
D12*
G04 #@! TO.C,V4*
X471250000Y-233750000D02*
G75*
G02*
X466250000Y-233750000I-2500000J0D01*
G01*
X477500000Y-225000000D02*
G75*
G02*
X460000000Y-225000000I-8750000J0D01*
G01*
X460000000Y-225000000D02*
G75*
G02*
X477500000Y-225000000I8750000J0D01*
G01*
G04 #@! TO.C,V5*
X402500000Y-233750000D02*
G75*
G02*
X397500000Y-233750000I-2500000J0D01*
G01*
X408750000Y-225000000D02*
G75*
G02*
X391250000Y-225000000I-8750000J0D01*
G01*
X391250000Y-225000000D02*
G75*
G02*
X408750000Y-225000000I8750000J0D01*
G01*
G04 #@! TO.C,V2*
X257125000Y-225000000D02*
G75*
G02*
X233125000Y-225000000I-12000000J0D01*
G01*
X233125000Y-225000000D02*
G75*
G02*
X257125000Y-225000000I12000000J0D01*
G01*
G04 #@! TO.C,BiasA1*
X462200000Y-256000000D02*
G75*
G02*
X459800000Y-256000000I-1200000J0D01*
G01*
X459800000Y-256000000D02*
G75*
G02*
X462200000Y-256000000I1200000J0D01*
G01*
G04 #@! TO.C,GND-Mess1*
X436700000Y-256000000D02*
G75*
G02*
X434300000Y-256000000I-1200000J0D01*
G01*
X434300000Y-256000000D02*
G75*
G02*
X436700000Y-256000000I1200000J0D01*
G01*
G04 #@! TO.C,V1*
X187250000Y-225000000D02*
G75*
G02*
X163250000Y-225000000I-12000000J0D01*
G01*
X163250000Y-225000000D02*
G75*
G02*
X187250000Y-225000000I12000000J0D01*
G01*
G04 #@! TO.C,V3*
X327000000Y-225000000D02*
G75*
G02*
X303000000Y-225000000I-12000000J0D01*
G01*
X303000000Y-225000000D02*
G75*
G02*
X327000000Y-225000000I12000000J0D01*
G01*
D13*
G04 #@! TO.C,U33*
X468999911Y-253749987D02*
X473499962Y-253749987D01*
X473499962Y-253749987D02*
X473499962Y-253968834D01*
X468999911Y-254768860D02*
X468999911Y-253749987D01*
X473499962Y-255731140D02*
X473499962Y-256268860D01*
X470233947Y-255745999D02*
X472265951Y-255745999D01*
X470233947Y-256254001D02*
X472265951Y-256254001D01*
X473499962Y-258031166D02*
X473499962Y-258159004D01*
X468999911Y-258250013D02*
X468999911Y-257231140D01*
X468999911Y-258250013D02*
X473499962Y-258250013D01*
X470868872Y-255364999D02*
G75*
G02*
X470614872Y-255364999I-127000J0D01*
G01*
X470614872Y-255364999D02*
G75*
G02*
X470868872Y-255364999I127000J0D01*
G01*
X472385763Y-256000000D02*
G75*
G02*
X470113983Y-256000000I-1135890J0D01*
G01*
X470113983Y-256000000D02*
G75*
G02*
X472385763Y-256000000I1135890J0D01*
G01*
X472730950Y-256000000D02*
G75*
G02*
X469768796Y-256000000I-1481077J0D01*
G01*
X469768796Y-256000000D02*
G75*
G02*
X472730950Y-256000000I1481077J0D01*
G01*
X470868873Y-256635001D02*
G75*
G02*
X470614871Y-256635001I-127001J0D01*
G01*
X470614871Y-256635001D02*
G75*
G02*
X470868873Y-256635001I127001J0D01*
G01*
D14*
X474379997Y-258250013D02*
G75*
G02*
X474320003Y-258250013I-29997J0D01*
G01*
X474320003Y-258250013D02*
G75*
G02*
X474379997Y-258250013I29997J0D01*
G01*
D12*
G04 #@! TO.C,BiasB1*
X411950000Y-256000000D02*
G75*
G02*
X409550000Y-256000000I-1200000J0D01*
G01*
X409550000Y-256000000D02*
G75*
G02*
X411950000Y-256000000I1200000J0D01*
G01*
G04 #@! TD*
%LPC*%
D15*
G04 #@! TO.C,MH8*
X361500000Y-152000000D03*
D16*
X361500000Y-152000000D03*
G04 #@! TD*
D15*
G04 #@! TO.C,MH7*
X217500000Y-152000000D03*
D16*
X217500000Y-152000000D03*
G04 #@! TD*
D15*
G04 #@! TO.C,MH6*
X520500000Y-226500000D03*
D16*
X520500000Y-226500000D03*
G04 #@! TD*
D15*
G04 #@! TO.C,MH5*
X520500000Y-269750000D03*
D16*
X520500000Y-269750000D03*
G04 #@! TD*
D15*
G04 #@! TO.C,MH4*
X123750000Y-262500000D03*
D16*
X123750000Y-262500000D03*
G04 #@! TD*
D15*
G04 #@! TO.C,MH3*
X123750000Y-200500000D03*
D16*
X123750000Y-200500000D03*
G04 #@! TD*
D17*
G04 #@! TO.C,R7*
X205500000Y-254750000D03*
X205500000Y-269750000D03*
G04 #@! TD*
G04 #@! TO.C,D4*
X211850013Y-236750000D03*
X203149987Y-236750000D03*
G04 #@! TD*
D18*
G04 #@! TO.C,X-BS-2*
X268000000Y-260750000D03*
G04 #@! TD*
D19*
G04 #@! TO.C,C10*
X312750000Y-182250000D03*
X312750000Y-177250000D03*
G04 #@! TD*
D20*
G04 #@! TO.C,R17*
X301150114Y-228250000D03*
X290849886Y-228250000D03*
G04 #@! TD*
G04 #@! TO.C,C1*
X501750000Y-199500000D03*
X503750000Y-199500000D03*
G04 #@! TD*
D17*
G04 #@! TO.C,R16*
X333000000Y-253500000D03*
X333000000Y-238500000D03*
G04 #@! TD*
D19*
G04 #@! TO.C,RELAY1*
X210790005Y-250830010D03*
X210790005Y-248290005D03*
X210790005Y-240669990D03*
X205709995Y-240669990D03*
X205709995Y-248290005D03*
X205709995Y-250830010D03*
G04 #@! TD*
D21*
G04 #@! TO.C,J1*
X151000000Y-269500000D03*
X151000000Y-263200000D03*
X151000000Y-256900000D03*
X134800000Y-256900000D03*
X134800000Y-263200000D03*
X134800000Y-269500000D03*
G04 #@! TD*
D22*
G04 #@! TO.C,R28*
X464899924Y-247000000D03*
X475100076Y-247000000D03*
G04 #@! TD*
D23*
G04 #@! TO.C,U30*
X345969964Y-198500000D03*
X381530036Y-198500000D03*
G04 #@! TD*
D21*
G04 #@! TO.C,RV4*
X377900000Y-270200000D03*
X382900000Y-270200000D03*
X387900000Y-270200000D03*
G04 #@! TD*
D24*
G04 #@! TO.C,X9*
X321000000Y-120750000D03*
G04 #@! TD*
D23*
G04 #@! TO.C,R27*
X258500000Y-186250000D03*
X239500000Y-186250000D03*
G04 #@! TD*
D25*
G04 #@! TO.C,U14*
X283250000Y-235750000D03*
X283250000Y-261250000D03*
G04 #@! TD*
D21*
G04 #@! TO.C,MH2*
X515540259Y-189354953D03*
D26*
X515540259Y-189354953D03*
G04 #@! TD*
D17*
G04 #@! TO.C,D2*
X441649987Y-191250000D03*
X450350013Y-191250000D03*
G04 #@! TD*
D19*
G04 #@! TO.C,C8*
X398500000Y-186750000D03*
X398500000Y-181750000D03*
G04 #@! TD*
D23*
G04 #@! TO.C,U29*
X451280036Y-202000000D03*
X415719964Y-202000000D03*
G04 #@! TD*
G04 #@! TO.C,C14*
X505020003Y-232500000D03*
X502479997Y-232500000D03*
G04 #@! TD*
D27*
G04 #@! TO.C,R6*
X191250000Y-235250064D03*
X191250000Y-221749936D03*
G04 #@! TD*
D28*
G04 #@! TO.C,U20*
X313000000Y-189000064D03*
X313000000Y-204499936D03*
G04 #@! TD*
D29*
G04 #@! TO.C,U22*
X375999873Y-261750000D03*
X389000127Y-261750000D03*
G04 #@! TD*
D25*
G04 #@! TO.C,U13*
X262900000Y-220750000D03*
X271600000Y-220750000D03*
G04 #@! TD*
D21*
G04 #@! TO.C,RV1*
X497900000Y-270200000D03*
X502900000Y-270200000D03*
X507900000Y-270200000D03*
G04 #@! TD*
D18*
G04 #@! TO.C,X-BS-1*
X250750000Y-260750000D03*
G04 #@! TD*
D25*
G04 #@! TO.C,U9*
X237900000Y-271000000D03*
X246600000Y-271000000D03*
G04 #@! TD*
D22*
G04 #@! TO.C,R21*
X342899924Y-258750000D03*
X353100076Y-258750000D03*
G04 #@! TD*
D18*
G04 #@! TO.C,Audio-B1*
X381250000Y-220000000D03*
G04 #@! TD*
D25*
G04 #@! TO.C,U11*
X224750000Y-237850000D03*
X224750000Y-229150000D03*
G04 #@! TD*
D18*
G04 #@! TO.C,AC-IN1*
X455000000Y-183250000D03*
G04 #@! TD*
D25*
G04 #@! TO.C,U10*
X237900000Y-265750000D03*
X246600000Y-265750000D03*
G04 #@! TD*
D23*
G04 #@! TO.C,C12*
X229500000Y-186290005D03*
X229500000Y-181209995D03*
G04 #@! TD*
D17*
G04 #@! TO.C,R3*
X192250000Y-186250000D03*
X177250000Y-186250000D03*
G04 #@! TD*
D30*
G04 #@! TO.C,U1*
X490040246Y-189354953D03*
X515540373Y-189354953D03*
G04 #@! TD*
D18*
G04 #@! TO.C,X2*
X189750000Y-271750000D03*
G04 #@! TD*
G04 #@! TO.C,THUMP1*
X360750000Y-256000000D03*
G04 #@! TD*
G04 #@! TO.C,AC-IN3*
X474500000Y-183250000D03*
G04 #@! TD*
D31*
G04 #@! TO.C,U18*
X329999936Y-234000000D03*
X349500064Y-234000000D03*
G04 #@! TD*
D25*
G04 #@! TO.C,U7*
X147000000Y-245250000D03*
X172500000Y-245250000D03*
G04 #@! TD*
D18*
G04 #@! TO.C,THUMP2*
X396000000Y-251250000D03*
G04 #@! TD*
D21*
G04 #@! TO.C,J3*
X304650000Y-91950000D03*
X304650000Y-98250000D03*
X304650000Y-104550000D03*
X320850000Y-104550000D03*
X320850000Y-98250000D03*
X320850000Y-91950000D03*
G04 #@! TD*
D18*
G04 #@! TO.C,AC-IN4*
X521000000Y-206000000D03*
G04 #@! TD*
D23*
G04 #@! TO.C,R19*
X305500000Y-239500000D03*
X324500000Y-239500000D03*
G04 #@! TD*
D22*
G04 #@! TO.C,R4*
X160850076Y-221750000D03*
X150649924Y-221750000D03*
G04 #@! TD*
D17*
G04 #@! TO.C,D6*
X319649987Y-270000000D03*
X328350013Y-270000000D03*
G04 #@! TD*
D19*
G04 #@! TO.C,RELAY2*
X240209995Y-250169990D03*
X240209995Y-252709995D03*
X240209995Y-260330010D03*
X245290005Y-260330010D03*
X245290005Y-252709995D03*
X245290005Y-250169990D03*
G04 #@! TD*
D18*
G04 #@! TO.C,Audo-From-FX1*
X241250000Y-152000000D03*
G04 #@! TD*
D29*
G04 #@! TO.C,R32*
X489500000Y-207499873D03*
X489500000Y-220500127D03*
G04 #@! TD*
D18*
G04 #@! TO.C,X-BS-3*
X259500000Y-260750000D03*
G04 #@! TD*
D21*
G04 #@! TO.C,MH1*
X490040259Y-189354953D03*
D26*
X490040259Y-189354953D03*
G04 #@! TD*
D32*
G04 #@! TO.C,U31*
X435499936Y-187500000D03*
X413000064Y-187500000D03*
G04 #@! TD*
D25*
G04 #@! TO.C,U21*
X313650000Y-208000000D03*
X322350000Y-208000000D03*
G04 #@! TD*
D20*
G04 #@! TO.C,R22*
X463599886Y-202500000D03*
X473900114Y-202500000D03*
G04 #@! TD*
D17*
G04 #@! TO.C,R12*
X271500000Y-191750000D03*
X271500000Y-206750000D03*
G04 #@! TD*
D24*
G04 #@! TO.C,X12*
X304000000Y-120750000D03*
G04 #@! TD*
D18*
G04 #@! TO.C,HV-OT2*
X382750000Y-179500000D03*
G04 #@! TD*
D24*
G04 #@! TO.C,AC-IN8*
X430000000Y-230000000D03*
G04 #@! TD*
D21*
G04 #@! TO.C,RV3*
X417900000Y-270200000D03*
X422900000Y-270200000D03*
X427900000Y-270200000D03*
G04 #@! TD*
D24*
G04 #@! TO.C,AC-IN6*
X441500000Y-230000000D03*
G04 #@! TD*
D20*
G04 #@! TO.C,R23*
X394849886Y-202750000D03*
X405150114Y-202750000D03*
G04 #@! TD*
D25*
G04 #@! TO.C,U17*
X328250000Y-248750000D03*
X302750000Y-248750000D03*
G04 #@! TD*
D18*
G04 #@! TO.C,Audio-To-FX1*
X265750000Y-152000000D03*
G04 #@! TD*
D33*
G04 #@! TO.C,Choke1*
X390500000Y-180250000D03*
G04 #@! TD*
D25*
G04 #@! TO.C,U16*
X263150000Y-242500000D03*
X271850000Y-242500000D03*
G04 #@! TD*
D21*
G04 #@! TO.C,RV2*
X457900000Y-270200000D03*
X462900000Y-270200000D03*
X467900000Y-270200000D03*
G04 #@! TD*
D29*
G04 #@! TO.C,U4*
X219000127Y-186250000D03*
X205999873Y-186250000D03*
G04 #@! TD*
D18*
G04 #@! TO.C,AC-IN2*
X464750000Y-183250000D03*
G04 #@! TD*
D19*
G04 #@! TO.C,RELAY3*
X321000000Y-256339980D03*
X321000000Y-258879985D03*
X321000000Y-266500000D03*
X326080010Y-266500000D03*
X326080010Y-258879985D03*
X326080010Y-256339980D03*
G04 #@! TD*
D23*
G04 #@! TO.C,R26*
X302000000Y-186500000D03*
X283000000Y-186500000D03*
G04 #@! TD*
D19*
G04 #@! TO.C,C9*
X358000000Y-186500000D03*
X358000000Y-181500000D03*
G04 #@! TD*
D17*
G04 #@! TO.C,R14*
X259500000Y-228250000D03*
X274500000Y-228250000D03*
G04 #@! TD*
D18*
G04 #@! TO.C,AC-IN5*
X521250000Y-217000000D03*
G04 #@! TD*
G04 #@! TO.C,X1*
X200500000Y-271750000D03*
G04 #@! TD*
D25*
G04 #@! TO.C,U8*
X215000000Y-209250000D03*
X215000000Y-234750000D03*
G04 #@! TD*
D27*
G04 #@! TO.C,R15*
X260499936Y-235500000D03*
X274000064Y-235500000D03*
G04 #@! TD*
D25*
G04 #@! TO.C,U15*
X295750000Y-235750000D03*
X295750000Y-261250000D03*
G04 #@! TD*
D18*
G04 #@! TO.C,Audio-A1*
X450500000Y-220000000D03*
G04 #@! TD*
D22*
G04 #@! TO.C,R10*
X230000000Y-238350076D03*
X230000000Y-228149924D03*
G04 #@! TD*
D17*
G04 #@! TO.C,D5*
X238649987Y-245250000D03*
X247350013Y-245250000D03*
G04 #@! TD*
D22*
G04 #@! TO.C,R31*
X426850076Y-256000000D03*
X416649924Y-256000000D03*
G04 #@! TD*
D24*
G04 #@! TO.C,AC-IN7*
X435000000Y-219000000D03*
G04 #@! TD*
D27*
G04 #@! TO.C,R13*
X230250000Y-221749936D03*
X230250000Y-207250064D03*
G04 #@! TD*
D21*
G04 #@! TO.C,RV7*
X257900000Y-270200000D03*
X262900000Y-270200000D03*
X267900000Y-270200000D03*
G04 #@! TD*
D31*
G04 #@! TO.C,U5*
X178999936Y-245250000D03*
X198500064Y-245250000D03*
G04 #@! TD*
D25*
G04 #@! TO.C,U23*
X379450000Y-243250000D03*
X339050000Y-243250000D03*
G04 #@! TD*
D22*
G04 #@! TO.C,R30*
X453600076Y-256000000D03*
X443399924Y-256000000D03*
G04 #@! TD*
D31*
G04 #@! TO.C,U32*
X345750064Y-186500000D03*
X326249936Y-186500000D03*
G04 #@! TD*
D17*
G04 #@! TO.C,D1*
X441649987Y-183250000D03*
X450350013Y-183250000D03*
G04 #@! TD*
D25*
G04 #@! TO.C,U26*
X330000000Y-210000000D03*
X355500000Y-210000000D03*
G04 #@! TD*
D17*
G04 #@! TO.C,R24*
X390500127Y-186750000D03*
X367499873Y-186750000D03*
G04 #@! TD*
D34*
G04 #@! TO.C,C2*
X502000000Y-212500064D03*
X502000000Y-219999936D03*
G04 #@! TD*
D17*
G04 #@! TO.C,R20*
X322250000Y-189250000D03*
X322250000Y-204250000D03*
G04 #@! TD*
D27*
G04 #@! TO.C,R1*
X140500000Y-245000064D03*
X140500000Y-231499936D03*
G04 #@! TD*
D25*
G04 #@! TO.C,U12*
X264250000Y-195400000D03*
X264250000Y-204100000D03*
G04 #@! TD*
D34*
G04 #@! TO.C,C7*
X222750000Y-204499936D03*
X222750000Y-197000064D03*
G04 #@! TD*
D25*
G04 #@! TO.C,U6*
X189100000Y-179750000D03*
X180400000Y-179750000D03*
G04 #@! TD*
D23*
G04 #@! TO.C,R25*
X345750000Y-177250000D03*
X326750000Y-177250000D03*
G04 #@! TD*
D17*
G04 #@! TO.C,R5*
X195000000Y-254750000D03*
X195000000Y-269750000D03*
G04 #@! TD*
D23*
G04 #@! TO.C,C5*
X157270003Y-214250000D03*
X154729997Y-214250000D03*
G04 #@! TD*
D21*
G04 #@! TO.C,J2*
X181000000Y-269500000D03*
X181000000Y-263200000D03*
X181000000Y-256900000D03*
X164800000Y-256900000D03*
X164800000Y-263200000D03*
X164800000Y-269500000D03*
G04 #@! TD*
D35*
G04 #@! TO.C,U2*
X505330264Y-186259906D03*
D36*
X502790259Y-186259906D03*
X500250000Y-186250000D03*
G04 #@! TD*
D25*
G04 #@! TO.C,U25*
X330000000Y-220250000D03*
X355500000Y-220250000D03*
G04 #@! TD*
D23*
G04 #@! TO.C,C11*
X271500000Y-186330010D03*
X271500000Y-181250000D03*
G04 #@! TD*
D29*
G04 #@! TO.C,U28*
X367750000Y-228000127D03*
X367750000Y-214999873D03*
G04 #@! TD*
D20*
G04 #@! TO.C,R2*
X134500000Y-242900114D03*
X134500000Y-232599886D03*
G04 #@! TD*
D18*
G04 #@! TO.C,HV-OT1*
X409000000Y-179500000D03*
G04 #@! TD*
D20*
G04 #@! TO.C,R18*
X330349886Y-228250000D03*
X340650114Y-228250000D03*
G04 #@! TD*
D21*
G04 #@! TO.C,RV5*
X337900000Y-270200000D03*
X342900000Y-270200000D03*
X347900000Y-270200000D03*
G04 #@! TD*
G04 #@! TO.C,RV6*
X297900000Y-270200000D03*
X302900000Y-270200000D03*
X307900000Y-270200000D03*
G04 #@! TD*
G04 #@! TO.C,J4*
X337150000Y-91950000D03*
X337150000Y-98250000D03*
X337150000Y-104550000D03*
X353350000Y-104550000D03*
X353350000Y-98250000D03*
X353350000Y-91950000D03*
G04 #@! TD*
D25*
G04 #@! TO.C,U24*
X365000000Y-253750000D03*
X390500000Y-253750000D03*
G04 #@! TD*
D22*
G04 #@! TO.C,R11*
X223250000Y-223350076D03*
X223250000Y-213149924D03*
G04 #@! TD*
D17*
G04 #@! TO.C,D3*
X494000000Y-226649987D03*
X494000000Y-235350013D03*
G04 #@! TD*
D23*
G04 #@! TO.C,C6*
X205000000Y-224270003D03*
X205000000Y-221729997D03*
G04 #@! TD*
D17*
G04 #@! TO.C,R9*
X206750000Y-195500000D03*
X191750000Y-195500000D03*
G04 #@! TD*
D21*
G04 #@! TO.C,RV8*
X217900000Y-270200000D03*
X222900000Y-270200000D03*
X227900000Y-270200000D03*
G04 #@! TD*
D23*
G04 #@! TO.C,C13*
X487770003Y-244000000D03*
X485229997Y-244000000D03*
G04 #@! TD*
D25*
G04 #@! TO.C,U19*
X481800000Y-256000000D03*
X522200000Y-256000000D03*
G04 #@! TD*
D22*
G04 #@! TO.C,R8*
X197750000Y-228350076D03*
X197750000Y-218149924D03*
G04 #@! TD*
D33*
G04 #@! TO.C,Choke2*
X367750000Y-180000000D03*
G04 #@! TD*
D22*
G04 #@! TO.C,R29*
X492149924Y-240250000D03*
X502350076Y-240250000D03*
G04 #@! TD*
D29*
G04 #@! TO.C,U27*
X362000000Y-214999873D03*
X362000000Y-228000127D03*
G04 #@! TD*
D37*
G04 #@! TO.C,V4*
X463775000Y-237010000D03*
X456740000Y-229975000D03*
X456740000Y-220025000D03*
X463775000Y-212990000D03*
X473725000Y-212990000D03*
X480760000Y-220025000D03*
X480760000Y-229975000D03*
X473725000Y-237010000D03*
G04 #@! TD*
G04 #@! TO.C,V5*
X395025000Y-237010000D03*
X387990000Y-229975000D03*
X387990000Y-220025000D03*
X395025000Y-212990000D03*
X404975000Y-212990000D03*
X412010000Y-220025000D03*
X412010000Y-229975000D03*
X404975000Y-237010000D03*
G04 #@! TD*
D38*
G04 #@! TO.C,V2*
X238952978Y-233494490D03*
X235138522Y-228244821D03*
X235138907Y-221755322D03*
X238953028Y-216504980D03*
X245124665Y-214499989D03*
X251297022Y-216505510D03*
X255111478Y-221755179D03*
X255111093Y-228244678D03*
X251296972Y-233495020D03*
G04 #@! TD*
D32*
G04 #@! TO.C,BiasA1*
X461000000Y-256000000D03*
G04 #@! TD*
G04 #@! TO.C,GND-Mess1*
X435500000Y-256000000D03*
G04 #@! TD*
D38*
G04 #@! TO.C,V1*
X169077978Y-233494490D03*
X165263522Y-228244821D03*
X165263907Y-221755322D03*
X169078028Y-216504980D03*
X175249665Y-214499989D03*
X181422022Y-216505510D03*
X185236478Y-221755179D03*
X185236093Y-228244678D03*
X181421972Y-233495020D03*
G04 #@! TD*
G04 #@! TO.C,V3*
X308827978Y-233494490D03*
X305013522Y-228244821D03*
X305013907Y-221755322D03*
X308828028Y-216504980D03*
X314999665Y-214499989D03*
X321172022Y-216505510D03*
X324986478Y-221755179D03*
X324986093Y-228244678D03*
X321171972Y-233495020D03*
G04 #@! TD*
D39*
G04 #@! TO.C,U33*
X474149949Y-257150114D03*
D40*
X468350051Y-256000000D03*
D39*
X474149949Y-254849886D03*
G04 #@! TD*
D32*
G04 #@! TO.C,BiasB1*
X410750000Y-256000000D03*
G04 #@! TD*
D24*
G04 #@! TO.C,N2*
X379500000Y-186250000D03*
X374500000Y-186250000D03*
G04 #@! TD*
G04 #@! TO.C,N1*
X481750000Y-193250000D03*
X486750000Y-193250000D03*
G04 #@! TD*
%LPD*%
M02*
