G04 #@! TF.GenerationSoftware,KiCad,Pcbnew,9.0.4*
G04 #@! TF.CreationDate,2025-10-07T22:59:05+02:00*
G04 #@! TF.ProjectId,wb50,77623530-2e6b-4696-9361-645f70636258,rev?*
G04 #@! TF.SameCoordinates,Original*
G04 #@! TF.FileFunction,Copper,L1,Top*
G04 #@! TF.FilePolarity,Positive*
%FSLAX46Y46*%
G04 Gerber Fmt 4.6, Leading zero omitted, Abs format (unit mm)*
G04 Created by KiCad (PCBNEW 9.0.4) date 2025-10-07 22:59:05*
%MOMM*%
%LPD*%
G01*
G04 APERTURE LIST*
G04 #@! TA.AperFunction,EtchedComponent*
%ADD10C,3.000000*%
G04 #@! TD*
G04 #@! TA.AperFunction,ComponentPad*
%ADD11C,3.900000*%
G04 #@! TD*
G04 #@! TA.AperFunction,ConnectorPad*
%ADD12C,7.000000*%
G04 #@! TD*
G04 #@! TA.AperFunction,ComponentPad*
%ADD13C,1.800000*%
G04 #@! TD*
G04 #@! TA.AperFunction,ComponentPad*
%ADD14C,3.000000*%
G04 #@! TD*
G04 #@! TA.AperFunction,ComponentPad*
%ADD15C,2.100000*%
G04 #@! TD*
G04 #@! TA.AperFunction,ComponentPad*
%ADD16C,1.300000*%
G04 #@! TD*
G04 #@! TA.AperFunction,ComponentPad*
%ADD17C,2.600000*%
G04 #@! TD*
G04 #@! TA.AperFunction,ComponentPad*
%ADD18C,1.400000*%
G04 #@! TD*
G04 #@! TA.AperFunction,ComponentPad*
%ADD19C,1.600000*%
G04 #@! TD*
G04 #@! TA.AperFunction,ComponentPad*
%ADD20C,4.000000*%
G04 #@! TD*
G04 #@! TA.AperFunction,ComponentPad*
%ADD21C,1.700000*%
G04 #@! TD*
G04 #@! TA.AperFunction,ConnectorPad*
%ADD22C,3.800000*%
G04 #@! TD*
G04 #@! TA.AperFunction,ComponentPad*
%ADD23C,1.879604*%
G04 #@! TD*
G04 #@! TA.AperFunction,ComponentPad*
%ADD24C,1.524003*%
G04 #@! TD*
G04 #@! TA.AperFunction,ComponentPad*
%ADD25C,1.500000*%
G04 #@! TD*
G04 #@! TA.AperFunction,ComponentPad*
%ADD26C,3.200000*%
G04 #@! TD*
G04 #@! TA.AperFunction,ComponentPad*
%ADD27C,2.300000*%
G04 #@! TD*
G04 #@! TA.AperFunction,ComponentPad*
%ADD28C,2.000000*%
G04 #@! TD*
G04 #@! TA.AperFunction,ComponentPad*
%ADD29C,2.500000*%
G04 #@! TD*
G04 #@! TA.AperFunction,SMDPad,CuDef*
%ADD30R,1.964999X0.980010*%
G04 #@! TD*
G04 #@! TA.AperFunction,SMDPad,CuDef*
%ADD31R,1.410008X1.350013*%
G04 #@! TD*
G04 #@! TA.AperFunction,ComponentPad*
%ADD32C,2.200000*%
G04 #@! TD*
G04 #@! TA.AperFunction,ComponentPad*
%ADD33R,1.800000X2.600000*%
G04 #@! TD*
G04 #@! TA.AperFunction,ComponentPad*
%ADD34O,1.800000X2.600000*%
G04 #@! TD*
G04 #@! TA.AperFunction,ComponentPad*
%ADD35C,3.500000*%
G04 #@! TD*
G04 #@! TA.AperFunction,ComponentPad*
%ADD36C,2.800000*%
G04 #@! TD*
G04 #@! TA.AperFunction,ViaPad*
%ADD37C,1.500000*%
G04 #@! TD*
G04 #@! TA.AperFunction,ViaPad*
%ADD38C,2.000000*%
G04 #@! TD*
G04 #@! TA.AperFunction,ViaPad*
%ADD39C,0.600000*%
G04 #@! TD*
G04 #@! TA.AperFunction,Conductor*
%ADD40C,2.000000*%
G04 #@! TD*
G04 #@! TA.AperFunction,Conductor*
%ADD41C,1.000000*%
G04 #@! TD*
G04 APERTURE END LIST*
D10*
G04 #@! TO.C,N2*
X379500000Y-186250000D02*
X374500000Y-186250000D01*
G04 #@! TO.C,N1*
X481750000Y-193250000D02*
X486750000Y-193250000D01*
G04 #@! TD*
D11*
G04 #@! TO.P,MH8,1,1*
G04 #@! TO.N,unconnected-(MH8-Pad1)*
X361500000Y-152000000D03*
D12*
X361500000Y-152000000D03*
G04 #@! TD*
D11*
G04 #@! TO.P,MH7,1,1*
G04 #@! TO.N,unconnected-(MH7-Pad1)*
X217500000Y-152000000D03*
D12*
X217500000Y-152000000D03*
G04 #@! TD*
D11*
G04 #@! TO.P,MH6,1,1*
G04 #@! TO.N,unconnected-(MH6-Pad1)*
X520500000Y-226500000D03*
D12*
X520500000Y-226500000D03*
G04 #@! TD*
D11*
G04 #@! TO.P,MH5,1,1*
G04 #@! TO.N,unconnected-(MH5-Pad1)*
X520500000Y-269750000D03*
D12*
X520500000Y-269750000D03*
G04 #@! TD*
D11*
G04 #@! TO.P,MH4,1,1*
G04 #@! TO.N,unconnected-(MH4-Pad1)*
X123750000Y-262500000D03*
D12*
X123750000Y-262500000D03*
G04 #@! TD*
D11*
G04 #@! TO.P,MH3,1,1*
G04 #@! TO.N,unconnected-(MH3-Pad1)*
X123750000Y-200500000D03*
D12*
X123750000Y-200500000D03*
G04 #@! TD*
D13*
G04 #@! TO.P,R7,1,1*
G04 #@! TO.N,Net-(R6-Pad1)*
X205500000Y-254750000D03*
G04 #@! TO.P,R7,2,2*
G04 #@! TO.N,GND-AUD*
X205500000Y-269750000D03*
G04 #@! TD*
G04 #@! TO.P,D4,1,K*
G04 #@! TO.N,+12V*
X211850013Y-236750000D03*
G04 #@! TO.P,D4,2,A*
G04 #@! TO.N,REL-SW*
X203149987Y-236750000D03*
G04 #@! TD*
D14*
G04 #@! TO.P,X-BS-2,1,1*
G04 #@! TO.N,Net-(RELAY2-Pad10)*
X268000000Y-260750000D03*
G04 #@! TD*
D15*
G04 #@! TO.P,C10,1*
G04 #@! TO.N,HV-C*
X312750000Y-182250000D03*
G04 #@! TO.P,C10,2*
G04 #@! TO.N,GND-AUD*
X312750000Y-177250000D03*
G04 #@! TD*
D16*
G04 #@! TO.P,R17,1,1*
G04 #@! TO.N,Net-(V3A-G)*
X301150114Y-228250000D03*
G04 #@! TO.P,R17,2,2*
G04 #@! TO.N,Net-(R17-Pad2)*
X290849886Y-228250000D03*
G04 #@! TD*
G04 #@! TO.P,C1,1*
G04 #@! TO.N,+12V*
X501750000Y-199500000D03*
G04 #@! TO.P,C1,2*
G04 #@! TO.N,GND-AUX*
X503750000Y-199500000D03*
G04 #@! TD*
D13*
G04 #@! TO.P,R16,1,1*
G04 #@! TO.N,/Phase Inverter/PI_IN*
X333000000Y-253500000D03*
G04 #@! TO.P,R16,2,2*
G04 #@! TO.N,GND-AUD*
X333000000Y-238500000D03*
G04 #@! TD*
D15*
G04 #@! TO.P,RELAY1,1,1*
G04 #@! TO.N,Net-(R5-Pad1)*
X210790005Y-250830010D03*
G04 #@! TO.P,RELAY1,2,2*
G04 #@! TO.N,+12V*
X210790005Y-248290005D03*
G04 #@! TO.P,RELAY1,5,5*
G04 #@! TO.N,Net-(R6-Pad1)*
X210790005Y-240669990D03*
G04 #@! TO.P,RELAY1,6,6*
X205709995Y-240669990D03*
G04 #@! TO.P,RELAY1,9,9*
G04 #@! TO.N,REL-SW*
X205709995Y-248290005D03*
G04 #@! TO.P,RELAY1,10,10*
G04 #@! TO.N,/Connectors/Audio_IN*
X205709995Y-250830010D03*
G04 #@! TD*
D17*
G04 #@! TO.P,J1,1,S*
G04 #@! TO.N,GND-AUD*
X151000000Y-269500000D03*
G04 #@! TO.P,J1,2,R*
G04 #@! TO.N,/Connectors/Audio_IN*
X151000000Y-263200000D03*
G04 #@! TO.P,J1,3,T*
X151000000Y-256900000D03*
G04 #@! TO.P,J1,4,TN*
G04 #@! TO.N,GND-AUD*
X134800000Y-256900000D03*
G04 #@! TO.P,J1,5,RN*
X134800000Y-263200000D03*
G04 #@! TO.P,J1,6,SN*
X134800000Y-269500000D03*
G04 #@! TD*
D18*
G04 #@! TO.P,R28,1,1*
G04 #@! TO.N,Net-(R28-Pad1)*
X464899924Y-247000000D03*
G04 #@! TO.P,R28,2,2*
G04 #@! TO.N,/Power Amp/Bias-Set*
X475100076Y-247000000D03*
G04 #@! TD*
D19*
G04 #@! TO.P,U30,1,1*
G04 #@! TO.N,HV-B*
X345969964Y-198500000D03*
G04 #@! TO.P,U30,2,2*
G04 #@! TO.N,Net-(V5A-g2)*
X381530036Y-198500000D03*
G04 #@! TD*
D17*
G04 #@! TO.P,RV4,1,1*
G04 #@! TO.N,Net-(RV2-Pad2)*
X377900000Y-270200000D03*
G04 #@! TO.P,RV4,2,2*
G04 #@! TO.N,Net-(Audio-To-FX1-Pad1)*
X382900000Y-270200000D03*
G04 #@! TO.P,RV4,3,3*
G04 #@! TO.N,Net-(RV4-Pad3)*
X387900000Y-270200000D03*
G04 #@! TD*
D20*
G04 #@! TO.P,X9,1,1*
G04 #@! TO.N,/Connectors/NFB_IN*
X321000000Y-120750000D03*
G04 #@! TD*
D19*
G04 #@! TO.P,R27,1,1*
G04 #@! TO.N,HV-D*
X258500000Y-186250000D03*
G04 #@! TO.P,R27,2,2*
G04 #@! TO.N,HV-E*
X239500000Y-186250000D03*
G04 #@! TD*
D21*
G04 #@! TO.P,U14,1*
G04 #@! TO.N,Net-(R15-Pad2)*
X283250000Y-235750000D03*
G04 #@! TO.P,U14,2*
G04 #@! TO.N,Net-(RV2-Pad2)*
X283250000Y-261250000D03*
G04 #@! TD*
D17*
G04 #@! TO.P,MH2,1,1*
G04 #@! TO.N,Net-(MH2-Pad1)*
X515540259Y-189354953D03*
D22*
X515540259Y-189354953D03*
G04 #@! TD*
D13*
G04 #@! TO.P,D2,1,K*
G04 #@! TO.N,Net-(D1-K)*
X441649987Y-191250000D03*
G04 #@! TO.P,D2,2,A*
G04 #@! TO.N,Net-(D2-A)*
X450350013Y-191250000D03*
G04 #@! TD*
D15*
G04 #@! TO.P,C8,1*
G04 #@! TO.N,HV-A*
X398500000Y-186750000D03*
G04 #@! TO.P,C8,2*
G04 #@! TO.N,GND-PWR*
X398500000Y-181750000D03*
G04 #@! TD*
D19*
G04 #@! TO.P,U29,1,1*
G04 #@! TO.N,Net-(V4A-g2)*
X451280036Y-202000000D03*
G04 #@! TO.P,U29,2,2*
G04 #@! TO.N,HV-B*
X415719964Y-202000000D03*
G04 #@! TD*
G04 #@! TO.P,C14,1*
G04 #@! TO.N,GND-PWR*
X505020003Y-232500000D03*
G04 #@! TO.P,C14,2*
G04 #@! TO.N,Net-(D3-A)*
X502479997Y-232500000D03*
G04 #@! TD*
D23*
G04 #@! TO.P,R6,1,1*
G04 #@! TO.N,Net-(R6-Pad1)*
X191250000Y-235250064D03*
G04 #@! TO.P,R6,2,2*
G04 #@! TO.N,Net-(V1B-G)*
X191250000Y-221749936D03*
G04 #@! TD*
D24*
G04 #@! TO.P,U20,1,1*
G04 #@! TO.N,HV-C*
X313000000Y-189000064D03*
G04 #@! TO.P,U20,2,2*
G04 #@! TO.N,Net-(V3A-A{slash}P)*
X313000000Y-204499936D03*
G04 #@! TD*
D25*
G04 #@! TO.P,U22,1,1*
G04 #@! TO.N,Net-(R21-Pad2)*
X375999873Y-261750000D03*
G04 #@! TO.P,U22,2,2*
G04 #@! TO.N,/Connectors/NFB_IN*
X389000127Y-261750000D03*
G04 #@! TD*
D21*
G04 #@! TO.P,U13,1*
G04 #@! TO.N,Net-(V2B-C{slash}K)*
X262900000Y-220750000D03*
G04 #@! TO.P,U13,2*
G04 #@! TO.N,GND-AUD*
X271600000Y-220750000D03*
G04 #@! TD*
D17*
G04 #@! TO.P,RV1,1,1*
G04 #@! TO.N,Net-(R19-Pad2)*
X497900000Y-270200000D03*
G04 #@! TO.P,RV1,2,2*
G04 #@! TO.N,Net-(RV1-Pad2)*
X502900000Y-270200000D03*
G04 #@! TO.P,RV1,3,3*
G04 #@! TO.N,GND-AUD*
X507900000Y-270200000D03*
G04 #@! TD*
D14*
G04 #@! TO.P,X-BS-1,1,1*
G04 #@! TO.N,Net-(U10-Pad2)*
X250750000Y-260750000D03*
G04 #@! TD*
D21*
G04 #@! TO.P,U9,1*
G04 #@! TO.N,Net-(RV7-Pad3)*
X237900000Y-271000000D03*
G04 #@! TO.P,U9,2*
G04 #@! TO.N,Net-(U9-Pad2)*
X246600000Y-271000000D03*
G04 #@! TD*
D18*
G04 #@! TO.P,R21,1,1*
G04 #@! TO.N,Net-(R19-Pad2)*
X342899924Y-258750000D03*
G04 #@! TO.P,R21,2,2*
G04 #@! TO.N,Net-(R21-Pad2)*
X353100076Y-258750000D03*
G04 #@! TD*
D14*
G04 #@! TO.P,Audio-B1,1,1*
G04 #@! TO.N,Net-(V5A-a)*
X381250000Y-220000000D03*
G04 #@! TD*
D21*
G04 #@! TO.P,U11,1*
G04 #@! TO.N,/Pre Amp/PreAmp_OUT*
X224750000Y-237850000D03*
G04 #@! TO.P,U11,2*
G04 #@! TO.N,Net-(V2A-G)*
X224750000Y-229150000D03*
G04 #@! TD*
D14*
G04 #@! TO.P,AC-IN1,1,1*
G04 #@! TO.N,Net-(D1-A)*
X455000000Y-183250000D03*
G04 #@! TD*
D21*
G04 #@! TO.P,U10,1*
G04 #@! TO.N,Net-(RV7-Pad3)*
X237900000Y-265750000D03*
G04 #@! TO.P,U10,2*
G04 #@! TO.N,Net-(U10-Pad2)*
X246600000Y-265750000D03*
G04 #@! TD*
D19*
G04 #@! TO.P,C12,1*
G04 #@! TO.N,HV-E*
X229500000Y-186290005D03*
G04 #@! TO.P,C12,2*
G04 #@! TO.N,GND-AUD*
X229500000Y-181209995D03*
G04 #@! TD*
D13*
G04 #@! TO.P,R3,1,1*
G04 #@! TO.N,Net-(R3-Pad1)*
X192250000Y-186250000D03*
G04 #@! TO.P,R3,2,2*
G04 #@! TO.N,Net-(V1A-A{slash}P)*
X177250000Y-186250000D03*
G04 #@! TD*
D26*
G04 #@! TO.P,U1,1*
G04 #@! TO.N,Net-(MH1-Pad1)*
X490040246Y-189354953D03*
G04 #@! TO.P,U1,2*
G04 #@! TO.N,Net-(MH2-Pad1)*
X515540373Y-189354953D03*
G04 #@! TD*
D14*
G04 #@! TO.P,X2,1,1*
G04 #@! TO.N,GND-AUX*
X189750000Y-271750000D03*
G04 #@! TD*
G04 #@! TO.P,THUMP1,1,1*
G04 #@! TO.N,Net-(R21-Pad2)*
X360750000Y-256000000D03*
G04 #@! TD*
G04 #@! TO.P,AC-IN3,1,1*
G04 #@! TO.N,Net-(D2-A)*
X474500000Y-183250000D03*
G04 #@! TD*
D27*
G04 #@! TO.P,U18,1,1*
G04 #@! TO.N,Net-(V3A-C{slash}K)*
X329999936Y-234000000D03*
G04 #@! TO.P,U18,2,2*
G04 #@! TO.N,Net-(R17-Pad2)*
X349500064Y-234000000D03*
G04 #@! TD*
D21*
G04 #@! TO.P,U7,1*
G04 #@! TO.N,Net-(V1A-A{slash}P)*
X147000000Y-245250000D03*
G04 #@! TO.P,U7,2*
G04 #@! TO.N,Net-(U5-Pad1)*
X172500000Y-245250000D03*
G04 #@! TD*
D14*
G04 #@! TO.P,THUMP2,1,1*
G04 #@! TO.N,/Connectors/NFB_IN*
X396000000Y-251250000D03*
G04 #@! TD*
D17*
G04 #@! TO.P,J3,1,S*
G04 #@! TO.N,GND-AUD*
X304650000Y-91950000D03*
G04 #@! TO.P,J3,2,R*
G04 #@! TO.N,/Connectors/NFB_IN*
X304650000Y-98250000D03*
G04 #@! TO.P,J3,3,T*
X304650000Y-104550000D03*
G04 #@! TO.P,J3,4,TN*
X320850000Y-104550000D03*
G04 #@! TO.P,J3,5,RN*
X320850000Y-98250000D03*
G04 #@! TO.P,J3,6,SN*
G04 #@! TO.N,Net-(J3-SN)*
X320850000Y-91950000D03*
G04 #@! TD*
D14*
G04 #@! TO.P,AC-IN4,1,1*
G04 #@! TO.N,Net-(AC-IN4-Pad1)*
X521000000Y-206000000D03*
G04 #@! TD*
D19*
G04 #@! TO.P,R19,1,1*
G04 #@! TO.N,Net-(R17-Pad2)*
X305500000Y-239500000D03*
G04 #@! TO.P,R19,2,2*
G04 #@! TO.N,Net-(R19-Pad2)*
X324500000Y-239500000D03*
G04 #@! TD*
D18*
G04 #@! TO.P,R4,1,1*
G04 #@! TO.N,Net-(V1A-C{slash}K)*
X160850076Y-221750000D03*
G04 #@! TO.P,R4,2,2*
G04 #@! TO.N,GND-AUD*
X150649924Y-221750000D03*
G04 #@! TD*
D13*
G04 #@! TO.P,D6,1,K*
G04 #@! TO.N,+12V*
X319649987Y-270000000D03*
G04 #@! TO.P,D6,2,A*
G04 #@! TO.N,REL-SW*
X328350013Y-270000000D03*
G04 #@! TD*
D15*
G04 #@! TO.P,RELAY2,1,1*
G04 #@! TO.N,Net-(RELAY2-Pad1)*
X240209995Y-250169990D03*
G04 #@! TO.P,RELAY2,2,2*
G04 #@! TO.N,+12V*
X240209995Y-252709995D03*
G04 #@! TO.P,RELAY2,5,5*
G04 #@! TO.N,/Pre Amp/PreAmp_OUT*
X240209995Y-260330010D03*
G04 #@! TO.P,RELAY2,6,6*
X245290005Y-260330010D03*
G04 #@! TO.P,RELAY2,9,9*
G04 #@! TO.N,REL-SW*
X245290005Y-252709995D03*
G04 #@! TO.P,RELAY2,10,10*
G04 #@! TO.N,Net-(RELAY2-Pad10)*
X245290005Y-250169990D03*
G04 #@! TD*
D14*
G04 #@! TO.P,Audo-From-FX1,1,1*
G04 #@! TO.N,Net-(Audo-From-FX1-Pad1)*
X241250000Y-152000000D03*
G04 #@! TD*
D25*
G04 #@! TO.P,R32,1,1*
G04 #@! TO.N,Net-(D2-A)*
X489500000Y-207499873D03*
G04 #@! TO.P,R32,2,2*
G04 #@! TO.N,Net-(D3-K)*
X489500000Y-220500127D03*
G04 #@! TD*
D14*
G04 #@! TO.P,X-BS-3,1,1*
G04 #@! TO.N,Net-(U9-Pad2)*
X259500000Y-260750000D03*
G04 #@! TD*
D17*
G04 #@! TO.P,MH1,1,1*
G04 #@! TO.N,Net-(MH1-Pad1)*
X490040259Y-189354953D03*
D22*
X490040259Y-189354953D03*
G04 #@! TD*
D28*
G04 #@! TO.P,U31,1,1*
G04 #@! TO.N,Net-(D1-K)*
X435499936Y-187500000D03*
G04 #@! TO.P,U31,2,2*
G04 #@! TO.N,HV-A*
X413000064Y-187500000D03*
G04 #@! TD*
D21*
G04 #@! TO.P,U21,1*
G04 #@! TO.N,Net-(V3A-A{slash}P)*
X313650000Y-208000000D03*
G04 #@! TO.P,U21,2*
G04 #@! TO.N,Net-(V3B-A{slash}P)*
X322350000Y-208000000D03*
G04 #@! TD*
D16*
G04 #@! TO.P,R22,1,1*
G04 #@! TO.N,/Phase Inverter/PI_OUT_A*
X463599886Y-202500000D03*
G04 #@! TO.P,R22,2,2*
G04 #@! TO.N,Net-(V4A-g1)*
X473900114Y-202500000D03*
G04 #@! TD*
D13*
G04 #@! TO.P,R12,1,1*
G04 #@! TO.N,HV-D*
X271500000Y-191750000D03*
G04 #@! TO.P,R12,2,2*
G04 #@! TO.N,Net-(V2A-A{slash}P)*
X271500000Y-206750000D03*
G04 #@! TD*
D20*
G04 #@! TO.P,X12,1,1*
G04 #@! TO.N,GND-AUD*
X304000000Y-120750000D03*
G04 #@! TD*
D14*
G04 #@! TO.P,HV-OT2,1,1*
G04 #@! TO.N,HV-A*
X382750000Y-179500000D03*
G04 #@! TD*
D20*
G04 #@! TO.P,AC-IN8,1,1*
G04 #@! TO.N,HEAT2*
X430000000Y-230000000D03*
G04 #@! TD*
D17*
G04 #@! TO.P,RV3,1,1*
G04 #@! TO.N,GND-AUD*
X417900000Y-270200000D03*
G04 #@! TO.P,RV3,2,2*
G04 #@! TO.N,Net-(RV3-Pad2)*
X422900000Y-270200000D03*
G04 #@! TO.P,RV3,3,3*
G04 #@! TO.N,Net-(RV2-Pad1)*
X427900000Y-270200000D03*
G04 #@! TD*
D20*
G04 #@! TO.P,AC-IN6,1,1*
G04 #@! TO.N,HEAT1*
X441500000Y-230000000D03*
G04 #@! TD*
D16*
G04 #@! TO.P,R23,1,1*
G04 #@! TO.N,/Phase Inverter/PI_OUT_B*
X394849886Y-202750000D03*
G04 #@! TO.P,R23,2,2*
G04 #@! TO.N,Net-(V5A-g1)*
X405150114Y-202750000D03*
G04 #@! TD*
D21*
G04 #@! TO.P,U17,1*
G04 #@! TO.N,/Phase Inverter/PI_IN*
X328250000Y-248750000D03*
G04 #@! TO.P,U17,2*
G04 #@! TO.N,Net-(V3A-G)*
X302750000Y-248750000D03*
G04 #@! TD*
D14*
G04 #@! TO.P,Audio-To-FX1,1,1*
G04 #@! TO.N,Net-(Audio-To-FX1-Pad1)*
X265750000Y-152000000D03*
G04 #@! TD*
D29*
G04 #@! TO.P,Choke1,1,1*
G04 #@! TO.N,HV-A*
X390500000Y-180250000D03*
G04 #@! TD*
D21*
G04 #@! TO.P,U16,1*
G04 #@! TO.N,Net-(V2B-C{slash}K)*
X263150000Y-242500000D03*
G04 #@! TO.P,U16,2*
G04 #@! TO.N,Net-(RV4-Pad3)*
X271850000Y-242500000D03*
G04 #@! TD*
D17*
G04 #@! TO.P,RV2,1,1*
G04 #@! TO.N,Net-(RV2-Pad1)*
X457900000Y-270200000D03*
G04 #@! TO.P,RV2,2,2*
G04 #@! TO.N,Net-(RV2-Pad2)*
X462900000Y-270200000D03*
G04 #@! TO.P,RV2,3,3*
X467900000Y-270200000D03*
G04 #@! TD*
D25*
G04 #@! TO.P,U4,1,1*
G04 #@! TO.N,HV-E*
X219000127Y-186250000D03*
G04 #@! TO.P,U4,2,2*
G04 #@! TO.N,Net-(R3-Pad1)*
X205999873Y-186250000D03*
G04 #@! TD*
D14*
G04 #@! TO.P,AC-IN2,1,1*
G04 #@! TO.N,GND-PWR*
X464750000Y-183250000D03*
G04 #@! TD*
D15*
G04 #@! TO.P,RELAY3,1,1*
G04 #@! TO.N,Net-(RELAY3-Pad1)*
X321000000Y-256339980D03*
G04 #@! TO.P,RELAY3,2,2*
G04 #@! TO.N,+12V*
X321000000Y-258879985D03*
G04 #@! TO.P,RELAY3,5,5*
G04 #@! TO.N,/Phase Inverter/PI_IN*
X321000000Y-266500000D03*
G04 #@! TO.P,RELAY3,6,6*
X326080010Y-266500000D03*
G04 #@! TO.P,RELAY3,9,9*
G04 #@! TO.N,REL-SW*
X326080010Y-258879985D03*
G04 #@! TO.P,RELAY3,10,10*
G04 #@! TO.N,Net-(RELAY3-Pad10)*
X326080010Y-256339980D03*
G04 #@! TD*
D19*
G04 #@! TO.P,R26,1,1*
G04 #@! TO.N,HV-C*
X302000000Y-186500000D03*
G04 #@! TO.P,R26,2,2*
G04 #@! TO.N,HV-D*
X283000000Y-186500000D03*
G04 #@! TD*
D15*
G04 #@! TO.P,C9,1*
G04 #@! TO.N,HV-B*
X358000000Y-186500000D03*
G04 #@! TO.P,C9,2*
G04 #@! TO.N,GND-AUD*
X358000000Y-181500000D03*
G04 #@! TD*
D13*
G04 #@! TO.P,R14,1,1*
G04 #@! TO.N,Net-(V2B-C{slash}K)*
X259500000Y-228250000D03*
G04 #@! TO.P,R14,2,2*
G04 #@! TO.N,GND-AUD*
X274500000Y-228250000D03*
G04 #@! TD*
D14*
G04 #@! TO.P,AC-IN5,1,1*
G04 #@! TO.N,Net-(AC-IN5-Pad1)*
X521250000Y-217000000D03*
G04 #@! TD*
G04 #@! TO.P,X1,1,1*
G04 #@! TO.N,Net-(J2-RN)*
X200500000Y-271750000D03*
G04 #@! TD*
D21*
G04 #@! TO.P,U8,1*
G04 #@! TO.N,Net-(V1B-A{slash}P)*
X215000000Y-209250000D03*
G04 #@! TO.P,U8,2*
G04 #@! TO.N,Net-(RV7-Pad3)*
X215000000Y-234750000D03*
G04 #@! TD*
D23*
G04 #@! TO.P,R15,1,1*
G04 #@! TO.N,Net-(V2B-C{slash}K)*
X260499936Y-235500000D03*
G04 #@! TO.P,R15,2,2*
G04 #@! TO.N,Net-(R15-Pad2)*
X274000064Y-235500000D03*
G04 #@! TD*
D21*
G04 #@! TO.P,U15,1*
G04 #@! TO.N,Net-(R15-Pad2)*
X295750000Y-235750000D03*
G04 #@! TO.P,U15,2*
G04 #@! TO.N,Net-(RV3-Pad2)*
X295750000Y-261250000D03*
G04 #@! TD*
D14*
G04 #@! TO.P,Audio-A1,1,1*
G04 #@! TO.N,Net-(V4A-a)*
X450500000Y-220000000D03*
G04 #@! TD*
D30*
G04 #@! TO.P,U3,1,DC+*
G04 #@! TO.N,Net-(U2-passive)*
X512807785Y-209354953D03*
G04 #@! TO.P,U3,2,DC-*
G04 #@! TO.N,GND-AUX*
X512807785Y-213354953D03*
G04 #@! TO.P,U3,3,AC*
G04 #@! TO.N,Net-(AC-IN5-Pad1)*
X518772733Y-213354953D03*
G04 #@! TO.P,U3,4,AC*
G04 #@! TO.N,Net-(AC-IN4-Pad1)*
X518772733Y-209354953D03*
G04 #@! TD*
D18*
G04 #@! TO.P,R10,1,1*
G04 #@! TO.N,/Pre Amp/PreAmp_OUT*
X230000000Y-238350076D03*
G04 #@! TO.P,R10,2,2*
G04 #@! TO.N,Net-(V2A-G)*
X230000000Y-228149924D03*
G04 #@! TD*
D13*
G04 #@! TO.P,D5,1,K*
G04 #@! TO.N,+12V*
X238649987Y-245250000D03*
G04 #@! TO.P,D5,2,A*
G04 #@! TO.N,REL-SW*
X247350013Y-245250000D03*
G04 #@! TD*
D18*
G04 #@! TO.P,R31,1,1*
G04 #@! TO.N,GND-AUD*
X426850076Y-256000000D03*
G04 #@! TO.P,R31,2,2*
G04 #@! TO.N,Net-(V5A-g3)*
X416649924Y-256000000D03*
G04 #@! TD*
D20*
G04 #@! TO.P,AC-IN7,1,1*
G04 #@! TO.N,GND-PWR*
X435000000Y-219000000D03*
G04 #@! TD*
D31*
G04 #@! TO.P,C3,1*
G04 #@! TO.N,Net-(U2-passive)*
X505040259Y-192354953D03*
G04 #@! TO.P,C3,2*
G04 #@! TO.N,GND-AUX*
X503040259Y-192354953D03*
G04 #@! TD*
D23*
G04 #@! TO.P,R13,1,1*
G04 #@! TO.N,Net-(V2A-C{slash}K)*
X230250000Y-221749936D03*
G04 #@! TO.P,R13,2,2*
G04 #@! TO.N,GND-AUD*
X230250000Y-207250064D03*
G04 #@! TD*
D17*
G04 #@! TO.P,RV7,1,1*
G04 #@! TO.N,GND-AUD*
X257900000Y-270200000D03*
G04 #@! TO.P,RV7,2,2*
G04 #@! TO.N,Net-(RELAY2-Pad10)*
X262900000Y-270200000D03*
G04 #@! TO.P,RV7,3,3*
G04 #@! TO.N,Net-(RV7-Pad3)*
X267900000Y-270200000D03*
G04 #@! TD*
D27*
G04 #@! TO.P,U5,1,1*
G04 #@! TO.N,Net-(U5-Pad1)*
X178999936Y-245250000D03*
G04 #@! TO.P,U5,2,2*
G04 #@! TO.N,Net-(R5-Pad1)*
X198500064Y-245250000D03*
G04 #@! TD*
D21*
G04 #@! TO.P,U23,1*
G04 #@! TO.N,Net-(V3B-G)*
X379450000Y-243250000D03*
G04 #@! TO.P,U23,2*
G04 #@! TO.N,Net-(R19-Pad2)*
X339050000Y-243250000D03*
G04 #@! TD*
D18*
G04 #@! TO.P,R30,1,1*
G04 #@! TO.N,Net-(V4A-g3)*
X453600076Y-256000000D03*
G04 #@! TO.P,R30,2,2*
G04 #@! TO.N,GND-AUD*
X443399924Y-256000000D03*
G04 #@! TD*
D27*
G04 #@! TO.P,U32,1,1*
G04 #@! TO.N,HV-B*
X345750064Y-186500000D03*
G04 #@! TO.P,U32,2,2*
G04 #@! TO.N,Net-(R25-Pad1)*
X326249936Y-186500000D03*
G04 #@! TD*
D13*
G04 #@! TO.P,D1,1,K*
G04 #@! TO.N,Net-(D1-K)*
X441649987Y-183250000D03*
G04 #@! TO.P,D1,2,A*
G04 #@! TO.N,Net-(D1-A)*
X450350013Y-183250000D03*
G04 #@! TD*
D21*
G04 #@! TO.P,U26,1*
G04 #@! TO.N,Net-(V3B-A{slash}P)*
X330000000Y-210000000D03*
G04 #@! TO.P,U26,2*
G04 #@! TO.N,/Phase Inverter/PI_OUT_B*
X355500000Y-210000000D03*
G04 #@! TD*
D13*
G04 #@! TO.P,R24,1,1*
G04 #@! TO.N,HV-A*
X390500127Y-186750000D03*
G04 #@! TO.P,R24,2,2*
G04 #@! TO.N,HV-B*
X367499873Y-186750000D03*
G04 #@! TD*
D32*
G04 #@! TO.P,C2,1*
G04 #@! TO.N,Net-(U2-passive)*
X502000000Y-212500064D03*
G04 #@! TO.P,C2,2*
G04 #@! TO.N,GND-AUX*
X502000000Y-219999936D03*
G04 #@! TD*
D13*
G04 #@! TO.P,R20,1,1*
G04 #@! TO.N,HV-C*
X322250000Y-189250000D03*
G04 #@! TO.P,R20,2,2*
G04 #@! TO.N,Net-(V3B-A{slash}P)*
X322250000Y-204250000D03*
G04 #@! TD*
D23*
G04 #@! TO.P,R1,1,1*
G04 #@! TO.N,/Connectors/Audio_IN*
X140500000Y-245000064D03*
G04 #@! TO.P,R1,2,2*
G04 #@! TO.N,Net-(V1A-G)*
X140500000Y-231499936D03*
G04 #@! TD*
D21*
G04 #@! TO.P,U12,1*
G04 #@! TO.N,HV-D*
X264250000Y-195400000D03*
G04 #@! TO.P,U12,2*
G04 #@! TO.N,Net-(V2A-A{slash}P)*
X264250000Y-204100000D03*
G04 #@! TD*
D32*
G04 #@! TO.P,C7,1*
G04 #@! TO.N,Net-(V2A-C{slash}K)*
X222750000Y-204499936D03*
G04 #@! TO.P,C7,2*
G04 #@! TO.N,GND-AUD*
X222750000Y-197000064D03*
G04 #@! TD*
D21*
G04 #@! TO.P,U6,1*
G04 #@! TO.N,Net-(R3-Pad1)*
X189100000Y-179750000D03*
G04 #@! TO.P,U6,2*
G04 #@! TO.N,Net-(V1A-A{slash}P)*
X180400000Y-179750000D03*
G04 #@! TD*
D19*
G04 #@! TO.P,R25,1,1*
G04 #@! TO.N,Net-(R25-Pad1)*
X345750000Y-177250000D03*
G04 #@! TO.P,R25,2,2*
G04 #@! TO.N,HV-C*
X326750000Y-177250000D03*
G04 #@! TD*
D13*
G04 #@! TO.P,R5,1,1*
G04 #@! TO.N,Net-(R5-Pad1)*
X195000000Y-254750000D03*
G04 #@! TO.P,R5,2,2*
G04 #@! TO.N,GND-AUD*
X195000000Y-269750000D03*
G04 #@! TD*
D19*
G04 #@! TO.P,C5,1*
G04 #@! TO.N,Net-(V1A-C{slash}K)*
X157270003Y-214250000D03*
G04 #@! TO.P,C5,2*
G04 #@! TO.N,GND-AUD*
X154729997Y-214250000D03*
G04 #@! TD*
D17*
G04 #@! TO.P,J2,1,S*
G04 #@! TO.N,GND-AUX*
X181000000Y-269500000D03*
G04 #@! TO.P,J2,2,R*
G04 #@! TO.N,REL-SW*
X181000000Y-263200000D03*
G04 #@! TO.P,J2,3,T*
X181000000Y-256900000D03*
G04 #@! TO.P,J2,4,TN*
G04 #@! TO.N,Net-(J2-RN)*
X164800000Y-256900000D03*
G04 #@! TO.P,J2,5,RN*
X164800000Y-263200000D03*
G04 #@! TO.P,J2,6,SN*
G04 #@! TO.N,GND-AUX*
X164800000Y-269500000D03*
G04 #@! TD*
D33*
G04 #@! TO.P,U2,1,passive*
G04 #@! TO.N,Net-(U2-passive)*
X505330264Y-186259906D03*
D34*
G04 #@! TO.P,U2,2,GND*
G04 #@! TO.N,GND-AUX*
X502790259Y-186259906D03*
G04 #@! TO.P,U2,3,OUTPUT*
G04 #@! TO.N,+12V*
X500250000Y-186250000D03*
G04 #@! TD*
D21*
G04 #@! TO.P,U25,1*
G04 #@! TO.N,Net-(V3A-A{slash}P)*
X330000000Y-220250000D03*
G04 #@! TO.P,U25,2*
G04 #@! TO.N,/Phase Inverter/PI_OUT_A*
X355500000Y-220250000D03*
G04 #@! TD*
D19*
G04 #@! TO.P,C11,1*
G04 #@! TO.N,HV-D*
X271500000Y-186330010D03*
G04 #@! TO.P,C11,2*
G04 #@! TO.N,GND-AUD*
X271500000Y-181250000D03*
G04 #@! TD*
D25*
G04 #@! TO.P,U28,1,1*
G04 #@! TO.N,/Power Amp/Bias-Set*
X367750000Y-228000127D03*
G04 #@! TO.P,U28,2,2*
G04 #@! TO.N,/Phase Inverter/PI_OUT_B*
X367750000Y-214999873D03*
G04 #@! TD*
D16*
G04 #@! TO.P,R2,1,1*
G04 #@! TO.N,/Connectors/Audio_IN*
X134500000Y-242900114D03*
G04 #@! TO.P,R2,2,2*
G04 #@! TO.N,GND-AUD*
X134500000Y-232599886D03*
G04 #@! TD*
D14*
G04 #@! TO.P,HV-OT1,1,1*
G04 #@! TO.N,HV-A*
X409000000Y-179500000D03*
G04 #@! TD*
D16*
G04 #@! TO.P,R18,1,1*
G04 #@! TO.N,Net-(V3B-G)*
X330349886Y-228250000D03*
G04 #@! TO.P,R18,2,2*
G04 #@! TO.N,Net-(R17-Pad2)*
X340650114Y-228250000D03*
G04 #@! TD*
D17*
G04 #@! TO.P,RV5,1,1*
G04 #@! TO.N,GND-AUD*
X337900000Y-270200000D03*
G04 #@! TO.P,RV5,2,2*
G04 #@! TO.N,Net-(RELAY3-Pad10)*
X342900000Y-270200000D03*
G04 #@! TO.P,RV5,3,3*
G04 #@! TO.N,Net-(Audo-From-FX1-Pad1)*
X347900000Y-270200000D03*
G04 #@! TD*
G04 #@! TO.P,RV6,1,1*
G04 #@! TO.N,GND-AUD*
X297900000Y-270200000D03*
G04 #@! TO.P,RV6,2,2*
G04 #@! TO.N,Net-(RELAY3-Pad1)*
X302900000Y-270200000D03*
G04 #@! TO.P,RV6,3,3*
G04 #@! TO.N,Net-(Audo-From-FX1-Pad1)*
X307900000Y-270200000D03*
G04 #@! TD*
G04 #@! TO.P,J4,1,S*
G04 #@! TO.N,GND-AUD*
X337150000Y-91950000D03*
G04 #@! TO.P,J4,2,R*
G04 #@! TO.N,/Connectors/NFB_IN*
X337150000Y-98250000D03*
G04 #@! TO.P,J4,3,T*
X337150000Y-104550000D03*
G04 #@! TO.P,J4,4,TN*
G04 #@! TO.N,Net-(J3-SN)*
X353350000Y-104550000D03*
G04 #@! TO.P,J4,5,RN*
X353350000Y-98250000D03*
G04 #@! TO.P,J4,6,SN*
G04 #@! TO.N,GND-AUD*
X353350000Y-91950000D03*
G04 #@! TD*
D21*
G04 #@! TO.P,U24,1*
G04 #@! TO.N,Net-(R21-Pad2)*
X365000000Y-253750000D03*
G04 #@! TO.P,U24,2*
G04 #@! TO.N,/Connectors/NFB_IN*
X390500000Y-253750000D03*
G04 #@! TD*
D18*
G04 #@! TO.P,R11,1,1*
G04 #@! TO.N,Net-(V2A-G)*
X223250000Y-223350076D03*
G04 #@! TO.P,R11,2,2*
G04 #@! TO.N,GND-AUD*
X223250000Y-213149924D03*
G04 #@! TD*
D31*
G04 #@! TO.P,C4,1*
G04 #@! TO.N,+12V*
X500540259Y-181354953D03*
G04 #@! TO.P,C4,2*
G04 #@! TO.N,GND-AUX*
X502540259Y-181354953D03*
G04 #@! TD*
D13*
G04 #@! TO.P,D3,1,K*
G04 #@! TO.N,Net-(D3-K)*
X494000000Y-226649987D03*
G04 #@! TO.P,D3,2,A*
G04 #@! TO.N,Net-(D3-A)*
X494000000Y-235350013D03*
G04 #@! TD*
D19*
G04 #@! TO.P,C6,1*
G04 #@! TO.N,Net-(V1B-C{slash}K)*
X205000000Y-224270003D03*
G04 #@! TO.P,C6,2*
G04 #@! TO.N,GND-AUD*
X205000000Y-221729997D03*
G04 #@! TD*
D13*
G04 #@! TO.P,R9,1,1*
G04 #@! TO.N,HV-E*
X206750000Y-195500000D03*
G04 #@! TO.P,R9,2,2*
G04 #@! TO.N,Net-(V1B-A{slash}P)*
X191750000Y-195500000D03*
G04 #@! TD*
D17*
G04 #@! TO.P,RV8,1,1*
G04 #@! TO.N,GND-AUD*
X217900000Y-270200000D03*
G04 #@! TO.P,RV8,2,2*
G04 #@! TO.N,Net-(RELAY2-Pad1)*
X222900000Y-270200000D03*
G04 #@! TO.P,RV8,3,3*
G04 #@! TO.N,Net-(RV7-Pad3)*
X227900000Y-270200000D03*
G04 #@! TD*
D19*
G04 #@! TO.P,C13,1*
G04 #@! TO.N,GND-PWR*
X487770003Y-244000000D03*
G04 #@! TO.P,C13,2*
G04 #@! TO.N,/Power Amp/Bias-Set*
X485229997Y-244000000D03*
G04 #@! TD*
D21*
G04 #@! TO.P,U19,1*
G04 #@! TO.N,Net-(RV1-Pad2)*
X481800000Y-256000000D03*
G04 #@! TO.P,U19,2*
G04 #@! TO.N,GND-AUD*
X522200000Y-256000000D03*
G04 #@! TD*
D18*
G04 #@! TO.P,R8,1,1*
G04 #@! TO.N,Net-(V1B-C{slash}K)*
X197750000Y-228350076D03*
G04 #@! TO.P,R8,2,2*
G04 #@! TO.N,GND-AUD*
X197750000Y-218149924D03*
G04 #@! TD*
D29*
G04 #@! TO.P,Choke2,1,1*
G04 #@! TO.N,HV-B*
X367750000Y-180000000D03*
G04 #@! TD*
D18*
G04 #@! TO.P,R29,1,1*
G04 #@! TO.N,/Power Amp/Bias-Set*
X492149924Y-240250000D03*
G04 #@! TO.P,R29,2,2*
G04 #@! TO.N,Net-(D3-A)*
X502350076Y-240250000D03*
G04 #@! TD*
D25*
G04 #@! TO.P,U27,1,1*
G04 #@! TO.N,/Phase Inverter/PI_OUT_A*
X362000000Y-214999873D03*
G04 #@! TO.P,U27,2,2*
G04 #@! TO.N,/Power Amp/Bias-Set*
X362000000Y-228000127D03*
G04 #@! TD*
D35*
G04 #@! TO.P,V4,1,g3*
G04 #@! TO.N,Net-(V4A-g3)*
X463775000Y-237010000D03*
G04 #@! TO.P,V4,2,f*
G04 #@! TO.N,HEAT1*
X456740000Y-229975000D03*
G04 #@! TO.P,V4,3,a*
G04 #@! TO.N,Net-(V4A-a)*
X456740000Y-220025000D03*
G04 #@! TO.P,V4,4,g2*
G04 #@! TO.N,Net-(V4A-g2)*
X463775000Y-212990000D03*
G04 #@! TO.P,V4,5,g1*
G04 #@! TO.N,Net-(V4A-g1)*
X473725000Y-212990000D03*
G04 #@! TO.P,V4,6*
G04 #@! TO.N,N/C*
X480760000Y-220025000D03*
G04 #@! TO.P,V4,7,f*
G04 #@! TO.N,HEAT2*
X480760000Y-229975000D03*
G04 #@! TO.P,V4,8,k*
G04 #@! TO.N,Net-(V4A-g3)*
X473725000Y-237010000D03*
G04 #@! TD*
G04 #@! TO.P,V5,1,g3*
G04 #@! TO.N,Net-(V5A-g3)*
X395025000Y-237010000D03*
G04 #@! TO.P,V5,2,f*
G04 #@! TO.N,HEAT1*
X387990000Y-229975000D03*
G04 #@! TO.P,V5,3,a*
G04 #@! TO.N,Net-(V5A-a)*
X387990000Y-220025000D03*
G04 #@! TO.P,V5,4,g2*
G04 #@! TO.N,Net-(V5A-g2)*
X395025000Y-212990000D03*
G04 #@! TO.P,V5,5,g1*
G04 #@! TO.N,Net-(V5A-g1)*
X404975000Y-212990000D03*
G04 #@! TO.P,V5,6*
G04 #@! TO.N,N/C*
X412010000Y-220025000D03*
G04 #@! TO.P,V5,7,f*
G04 #@! TO.N,HEAT2*
X412010000Y-229975000D03*
G04 #@! TO.P,V5,8,k*
G04 #@! TO.N,Net-(V5A-g3)*
X404975000Y-237010000D03*
G04 #@! TD*
D36*
G04 #@! TO.P,V2,1,A/P*
G04 #@! TO.N,Net-(V2A-A{slash}P)*
X238952978Y-233494490D03*
G04 #@! TO.P,V2,2,G*
G04 #@! TO.N,Net-(V2A-G)*
X235138522Y-228244821D03*
G04 #@! TO.P,V2,3,C/K*
G04 #@! TO.N,Net-(V2A-C{slash}K)*
X235138907Y-221755322D03*
G04 #@! TO.P,V2,4,H1*
G04 #@! TO.N,+12V*
X238953028Y-216504980D03*
G04 #@! TO.P,V2,5,H2*
G04 #@! TO.N,GND-AUX*
X245124665Y-214499989D03*
G04 #@! TO.P,V2,6,A/P*
G04 #@! TO.N,HV-D*
X251297022Y-216505510D03*
G04 #@! TO.P,V2,7,G*
G04 #@! TO.N,Net-(V2A-A{slash}P)*
X255111478Y-221755179D03*
G04 #@! TO.P,V2,8,C/K*
G04 #@! TO.N,Net-(V2B-C{slash}K)*
X255111093Y-228244678D03*
G04 #@! TO.P,V2,9,CT*
G04 #@! TO.N,unconnected-(V2C-CT-Pad9)*
X251296972Y-233495020D03*
G04 #@! TD*
G04 #@! TO.P,V1,1,A/P*
G04 #@! TO.N,Net-(V1A-A{slash}P)*
X169077978Y-233494490D03*
G04 #@! TO.P,V1,2,G*
G04 #@! TO.N,Net-(V1A-G)*
X165263522Y-228244821D03*
G04 #@! TO.P,V1,3,C/K*
G04 #@! TO.N,Net-(V1A-C{slash}K)*
X165263907Y-221755322D03*
G04 #@! TO.P,V1,4,H1*
G04 #@! TO.N,+12V*
X169078028Y-216504980D03*
G04 #@! TO.P,V1,5,H2*
G04 #@! TO.N,GND-AUX*
X175249665Y-214499989D03*
G04 #@! TO.P,V1,6,A/P*
G04 #@! TO.N,Net-(V1B-A{slash}P)*
X181422022Y-216505510D03*
G04 #@! TO.P,V1,7,G*
G04 #@! TO.N,Net-(V1B-G)*
X185236478Y-221755179D03*
G04 #@! TO.P,V1,8,C/K*
G04 #@! TO.N,Net-(V1B-C{slash}K)*
X185236093Y-228244678D03*
G04 #@! TO.P,V1,9,CT*
G04 #@! TO.N,unconnected-(V1C-CT-Pad9)*
X181421972Y-233495020D03*
G04 #@! TD*
G04 #@! TO.P,V3,1,A/P*
G04 #@! TO.N,Net-(V3A-A{slash}P)*
X308827978Y-233494490D03*
G04 #@! TO.P,V3,2,G*
G04 #@! TO.N,Net-(V3A-G)*
X305013522Y-228244821D03*
G04 #@! TO.P,V3,3,C/K*
G04 #@! TO.N,Net-(V3A-C{slash}K)*
X305013907Y-221755322D03*
G04 #@! TO.P,V3,4,H1*
G04 #@! TO.N,+12V*
X308828028Y-216504980D03*
G04 #@! TO.P,V3,5,H2*
G04 #@! TO.N,GND-AUX*
X314999665Y-214499989D03*
G04 #@! TO.P,V3,6,A/P*
G04 #@! TO.N,Net-(V3B-A{slash}P)*
X321172022Y-216505510D03*
G04 #@! TO.P,V3,7,G*
G04 #@! TO.N,Net-(V3B-G)*
X324986478Y-221755179D03*
G04 #@! TO.P,V3,8,C/K*
G04 #@! TO.N,Net-(V3A-C{slash}K)*
X324986093Y-228244678D03*
G04 #@! TO.P,V3,9,CT*
G04 #@! TO.N,unconnected-(V3C-CT-Pad9)*
X321171972Y-233495020D03*
G04 #@! TD*
D14*
G04 #@! TO.P,N2,1,Net1*
G04 #@! TO.N,GND-PWR*
X379500000Y-186250000D03*
G04 #@! TO.P,N2,2,Net2*
G04 #@! TO.N,GND-AUD*
X374500000Y-186250000D03*
G04 #@! TD*
G04 #@! TO.P,N1,1,Net1*
G04 #@! TO.N,GND-PWR*
X481750000Y-193250000D03*
G04 #@! TO.P,N1,2,Net2*
G04 #@! TO.N,GND-AUX*
X486750000Y-193250000D03*
G04 #@! TD*
D37*
G04 #@! TO.N,Net-(R19-Pad2)*
X353500000Y-255750000D03*
D38*
G04 #@! TO.N,GND-AUX*
X492500000Y-201250000D03*
G04 #@! TO.N,Net-(R28-Pad1)*
X466000000Y-252500000D03*
D39*
G04 #@! TO.N,Net-(V3A-A{slash}P)*
X318500000Y-220250000D03*
G04 #@! TD*
D40*
G04 #@! TO.N,+12V*
X507250000Y-225250000D02*
X509750000Y-227750000D01*
X500500000Y-199500000D02*
X500500000Y-199250000D01*
X494500000Y-205500000D02*
X494500000Y-223250000D01*
X235609982Y-248290005D02*
X238649987Y-245250000D01*
X393274069Y-201001000D02*
X311500000Y-201001000D01*
X298999894Y-247900447D02*
X309979432Y-258879985D01*
X210790005Y-248290005D02*
X235609982Y-248290005D01*
X509750000Y-256000000D02*
X502049000Y-263701000D01*
X494500000Y-223250000D02*
X496500000Y-225250000D01*
D41*
X500250000Y-186250000D02*
X500250000Y-198000000D01*
D40*
X500500000Y-199250000D02*
X498250000Y-197000000D01*
X397275069Y-197000000D02*
X393274069Y-201001000D01*
X241300434Y-247900447D02*
X298999894Y-247900447D01*
X496500000Y-225250000D02*
X507250000Y-225250000D01*
D41*
X500540259Y-181354953D02*
X500540259Y-183959741D01*
X500250000Y-184250000D02*
X500250000Y-186250000D01*
D40*
X238649987Y-245250000D02*
X241300434Y-247900447D01*
X240500000Y-201001000D02*
X311500000Y-201001000D01*
X308828028Y-203672972D02*
X311500000Y-201001000D01*
X309979432Y-258879985D02*
X321000000Y-258879985D01*
X509750000Y-227750000D02*
X509750000Y-256000000D01*
X308828028Y-216504980D02*
X308828028Y-203672972D01*
X174499000Y-201001000D02*
X240500000Y-201001000D01*
X502049000Y-263701000D02*
X325821015Y-263701000D01*
X498250000Y-197000000D02*
X397275069Y-197000000D01*
X325821015Y-263701000D02*
X321000000Y-258879985D01*
X169078028Y-216504980D02*
X169078028Y-206421972D01*
D41*
X500540259Y-183959741D02*
X500250000Y-184250000D01*
D40*
X238953028Y-202547972D02*
X240500000Y-201001000D01*
X500500000Y-199500000D02*
X494500000Y-205500000D01*
X501750000Y-199500000D02*
X500500000Y-199500000D01*
X169078028Y-206421972D02*
X174499000Y-201001000D01*
X238953028Y-216504980D02*
X238953028Y-202547972D01*
D41*
G04 #@! TO.N,Net-(AC-IN4-Pad1)*
X521000000Y-208750000D02*
X521000000Y-206000000D01*
X518772733Y-209354953D02*
X520395047Y-209354953D01*
X520395047Y-209354953D02*
X521000000Y-208750000D01*
G04 #@! TO.N,Net-(AC-IN5-Pad1)*
X520354953Y-213354953D02*
X521250000Y-214250000D01*
X521250000Y-214250000D02*
X521250000Y-217000000D01*
X518772733Y-213354953D02*
X520354953Y-213354953D01*
G04 #@! TO.N,Net-(U2-passive)*
X512807785Y-198057785D02*
X507104953Y-192354953D01*
X512807785Y-209354953D02*
X512807785Y-198057785D01*
X505040259Y-188709741D02*
X505330264Y-188419736D01*
X512807785Y-209354953D02*
X505145111Y-209354953D01*
X505040259Y-192354953D02*
X505040259Y-188709741D01*
X505330264Y-188419736D02*
X505330264Y-186259906D01*
X505145111Y-209354953D02*
X502000000Y-212500064D01*
X507104953Y-192354953D02*
X505040259Y-192354953D01*
D40*
G04 #@! TO.N,GND-AUX*
X245124665Y-214499989D02*
X245124665Y-214875335D01*
X243750000Y-216250000D02*
X243750000Y-219500000D01*
X311773572Y-219705980D02*
X307350042Y-219705980D01*
X316399664Y-213099990D02*
X314999665Y-214499989D01*
X243750000Y-219500000D02*
X237269062Y-219500000D01*
X320857669Y-213099990D02*
X316399664Y-213099990D01*
X334500000Y-267250000D02*
X327299000Y-274451000D01*
X297644062Y-210000000D02*
X249624654Y-210000000D01*
X314999665Y-216479887D02*
X311773572Y-219705980D01*
X189050924Y-215550924D02*
X185000000Y-211500000D01*
X245124665Y-214875335D02*
X243750000Y-216250000D01*
D41*
X502540259Y-186009906D02*
X502790259Y-186259906D01*
D40*
X192451000Y-274451000D02*
X189750000Y-271750000D01*
X249624654Y-210000000D02*
X245124665Y-214499989D01*
X178249654Y-211500000D02*
X175249665Y-214499989D01*
X506500000Y-267250000D02*
X334500000Y-267250000D01*
X492500000Y-201250000D02*
X488649000Y-205101000D01*
X189750000Y-271750000D02*
X183250000Y-271750000D01*
X328856659Y-205101000D02*
X320857669Y-213099990D01*
X233319986Y-215550924D02*
X189050924Y-215550924D01*
X327299000Y-274451000D02*
X192451000Y-274451000D01*
X307350042Y-219705980D02*
X297644062Y-210000000D01*
X185000000Y-211500000D02*
X178249654Y-211500000D01*
X515000000Y-258750000D02*
X506500000Y-267250000D01*
X183250000Y-271750000D02*
X181000000Y-269500000D01*
D41*
X508644983Y-213354953D02*
X502000000Y-219999936D01*
X512807785Y-213354953D02*
X508644983Y-213354953D01*
D40*
X502000000Y-219999936D02*
X507249936Y-219999936D01*
X181000000Y-269500000D02*
X164800000Y-269500000D01*
X507249936Y-219999936D02*
X515000000Y-227750000D01*
X314999665Y-214499989D02*
X314999665Y-216479887D01*
D41*
X502540259Y-181354953D02*
X502540259Y-186009906D01*
X503040259Y-192354953D02*
X503040259Y-186509906D01*
D40*
X488649000Y-205101000D02*
X328856659Y-205101000D01*
X237269062Y-219500000D02*
X233319986Y-215550924D01*
X515000000Y-227750000D02*
X515000000Y-258750000D01*
D41*
X503040259Y-186509906D02*
X502790259Y-186259906D01*
D40*
G04 #@! TO.N,REL-SW*
X181000000Y-256900000D02*
X200250000Y-256900000D01*
X181000000Y-263200000D02*
X181000000Y-256900000D01*
X245500000Y-256900000D02*
X303578724Y-256900000D01*
X245290005Y-256690005D02*
X245500000Y-256900000D01*
X200250000Y-252265076D02*
X200250000Y-256900000D01*
X200250000Y-256900000D02*
X245500000Y-256900000D01*
X245290005Y-252709995D02*
X245290005Y-256690005D01*
X303578724Y-256900000D02*
X318779724Y-272101000D01*
X326249013Y-272101000D02*
X328350013Y-270000000D01*
X318779724Y-272101000D02*
X326249013Y-272101000D01*
X204225071Y-248290005D02*
X200250000Y-252265076D01*
X205709995Y-248290005D02*
X204225071Y-248290005D01*
G04 #@! TD*
M02*
